<?xml version="1.0" encoding="UTF-8" standalone="no"?>
<svg
   xmlns:dc="http://purl.org/dc/elements/1.1/"
   xmlns:cc="http://creativecommons.org/ns#"
   xmlns:rdf="http://www.w3.org/1999/02/22-rdf-syntax-ns#"
   xmlns:svg="http://www.w3.org/2000/svg"
   xmlns="http://www.w3.org/2000/svg"
   xmlns:sodipodi="http://sodipodi.sourceforge.net/DTD/sodipodi-0.dtd"
   xmlns:inkscape="http://www.inkscape.org/namespaces/inkscape"
   inkscape:version="1.0 (4035a4f, 2020-05-01)"
   height="108.52782"
   width="504.94388"
   sodipodi:docname="logo.svg"
   id="svg847"
   version="1.1"
   viewBox="0 0 504.94389 108.52782">
  <metadata
     id="metadata851">
    <rdf:RDF>
      <cc:Work
         rdf:about="">
        <dc:format>image/svg+xml</dc:format>
        <dc:type
           rdf:resource="http://purl.org/dc/dcmitype/StillImage" />
        <dc:title>Asset 3</dc:title>
      </cc:Work>
    </rdf:RDF>
  </metadata>
  <sodipodi:namedview
     inkscape:current-layer="text843"
     inkscape:window-maximized="0"
     inkscape:window-y="23"
     inkscape:window-x="57"
     inkscape:cy="-60.808553"
     inkscape:cx="242.48634"
     inkscape:zoom="1.6551198"
     fit-margin-bottom="0"
     fit-margin-right="0"
     fit-margin-left="0"
     fit-margin-top="0"
     showgrid="false"
     id="namedview849"
     inkscape:window-height="1069"
     inkscape:window-width="1920"
     inkscape:pageshadow="2"
     inkscape:pageopacity="0"
     guidetolerance="10"
     gridtolerance="10"
     objecttolerance="10"
     borderopacity="1"
     bordercolor="#666666"
     pagecolor="#ffffff"
     inkscape:document-rotation="0" />
  <defs
     id="defs835">
    <style
       id="style833">.cls-1{fill:#3dd6ff;fill-rule:evenodd;}.cls-2{font-size:45.06px;fill:#174856;font-family:FuturaBT-Medium, FuturaBT Medium;}</style>
  </defs>
  <title
     id="title837">Asset 3</title>
  <g
     transform="translate(-13.827402,-12.976251)"
     data-name="Layer 2"
     id="Layer_2">
    <g
       data-name="Layer 1"
       id="Layer_1-2">
      <path
         id="path839"
         d="M 41.13,49.49 Z"
         class="cls-1" />
      <path
         id="path841"
         d="m 159.83055,53.219048 a 62.100259,64.961548 0 0 0 -12.03302,-4.162836 1.4550201,1.5220606 0 0 0 -1.58597,0.677317 l -16.2162,34.002835 -1.07672,2.283091 -14.5502,-30.776066 -2.29166,-4.794491 c 0,-0.03805 -0.0436,-0.06849 -0.0655,-0.106544 l -0.37103,-0.761031 a 3.8703536,4.0486813 0 1 0 -2.91004,1.400296 3.8048777,3.9801886 0 0 0 0.47288,0 l 0.42923,0.905626 c 0,0 0,0.06849 0.0364,0.106544 l 15.7797,33.264636 2.25528,4.76405 a 1.4113695,1.4763988 0 0 0 2.42261,0 l 16.2162,-34.002835 1.8406,-3.858424 c 8.31544,2.047172 16.52903,5.753389 21.6216,13.219097 a 28.307417,29.61169 0 0 1 5.28172,15.707666 C 175.55204,92.922 171.30338,104.31462 161.81665,111.1639 a 40.813315,42.693801 0 0 1 -11.72746,5.74577 q -2.18253,0.6621 -4.36506,1.11111 a 21.446997,22.435174 0 0 1 -2.26984,0.3729 c -3.89945,0.28919 -7.89348,0 -11.80021,0 H 68.426178 c -6.351163,0 -12.702326,0.0837 -19.046214,0 -3.63755,-0.0457 -8.126287,-1.46879 -11.887514,-3.04412 C 27.38006,111.13346 19.763029,102.67841 17.500473,91.392329 14.932362,78.728785 18.635389,65.471637 29.322512,58.02115 c 4.103156,-2.853864 8.73012,-4.566182 13.429835,-5.974088 a 1.4550201,1.5220606 0 0 0 1.02579,-1.369855 c 0,0 0,-0.05327 0.05092,-0.357684 q 0.152777,-0.974119 0.349205,-1.933017 a 49.339733,51.613077 0 0 1 1.564152,-5.882765 41.729977,43.652699 0 0 1 9.210277,-16.301269 31.486636,32.937392 0 0 1 25.841158,-10.144534 24.247911,25.365141 0 0 1 10.8399,4.101953 c 3.848528,2.694047 6.474839,6.26328 8.766501,10.304351 a 3.8703536,4.0486813 0 1 0 2.68451,-1.019781 c -2.24801,-4.063902 -4.750643,-7.648355 -8.380919,-10.585932 a 26.74327,27.975475 0 0 0 -9.908687,-5.03041 32.323272,33.812577 0 0 0 -17.096486,0.76864 C 56.378611,18.234484 48.237773,27.899569 43.945464,39.155208 A 45.563956,47.663329 0 0 0 41.13,49.49 c -8.795597,2.739709 -17.00191,7.085192 -22.174507,15.357592 a 31.071955,32.503605 0 0 0 -5.09257,16.240387 c -0.487432,12.511338 4.037681,24.467121 13.822691,31.963271 a 42.64664,44.611598 0 0 0 20.457583,8.24957 c 4.037681,0.41857 8.249964,0.0609 12.302195,0.0609 h 66.305268 c 5.41268,0 10.91265,0.31202 16.3326,0 5.69641,-0.32724 11.69109,-2.62555 16.65271,-5.42614 11.0436,-6.24806 17.46024,-17.5037 18.115,-30.585811 0.68386,-13.485458 -5.97286,-26.476245 -18.02042,-32.130701 z m -54.20678,-6.324162 a 3.1137431,3.2572098 0 1 1 3.12102,3.26482 3.1210182,3.2648201 0 0 1 -3.12102,-3.26482 z"
         class="cls-1"
         style="stroke-width:0.744081" />
      <g
         aria-label="Cloud V"
         id="text843"
         style="font-size:45.06px;font-family:FuturaBT-Medium, 'FuturaBT Medium';fill:#174856"
         class="cls-2"
         transform="matrix(1.8676585,0,0,1.8676585,-184.14954,-74.465972)">
        <g
           transform="matrix(0.8693323,0,0,0.8693323,31.933675,11.798363)"
           id="g864"
           style="opacity:1">
          <path
             style="color:#000000;font-style:normal;font-variant:normal;font-weight:normal;font-stretch:normal;font-size:medium;line-height:normal;font-family:Montserrat;-inkscape-font-specification:Montserrat;font-variant-ligatures:normal;font-variant-position:normal;font-variant-caps:normal;font-variant-numeric:normal;font-variant-alternates:normal;font-variant-east-asian:normal;font-feature-settings:normal;font-variation-settings:normal;text-indent:0;text-align:start;text-decoration:none;text-decoration-line:none;text-decoration-style:solid;text-decoration-color:#000000;letter-spacing:normal;word-spacing:normal;text-transform:none;writing-mode:lr-tb;direction:ltr;text-orientation:mixed;dominant-baseline:auto;baseline-shift:baseline;text-anchor:start;white-space:normal;shape-padding:0;shape-margin:0;inline-size:0;clip-rule:nonzero;display:inline;overflow:visible;visibility:visible;isolation:auto;mix-blend-mode:normal;color-interpolation:sRGB;color-interpolation-filters:linearRGB;solid-color:#000000;solid-opacity:1;vector-effect:none;fill:#174856;fill-opacity:1;fill-rule:nonzero;stroke:none;stroke-width:1;stroke-linecap:butt;stroke-linejoin:miter;stroke-miterlimit:4;stroke-dasharray:none;stroke-dashoffset:0;stroke-opacity:1;color-rendering:auto;image-rendering:auto;shape-rendering:auto;text-rendering:auto;enable-background:accumulate;stop-color:#000000;stop-opacity:1"
             d="m 220.26915,91.671337 c -3.09412,0 -5.88784,-0.69092 -8.38116,-2.07276 -2.46328,-1.38184 -4.41588,-3.28938 -5.8578,-5.72262 -1.41188,-2.43324 -2.11782,-5.16688 -2.11782,-8.20092 0,-3.03404 0.70594,-5.76768 2.11782,-8.20092 1.44192,-2.433241 3.39452,-4.340781 5.8578,-5.722621 2.49332,-1.38184 5.28704,-2.07276 8.38116,-2.07276 2.28304,0 4.38584,0.3755 6.3084,1.1265 1.92256,0.72096 3.55974,1.8024 4.91154,3.24432 l -1.44192,1.486981 c -2.52336,-2.493321 -5.75266,-3.739981 -9.6879,-3.739981 -2.64352,0 -5.04672,0.6008 -7.2096,1.8024 -2.16288,1.2016 -3.86014,2.86882 -5.09178,5.001661 -1.23164,2.1028 -1.84746,4.46094 -1.84746,7.07442 0,2.61348 0.61582,4.98664 1.84746,7.11948 1.23164,2.1028 2.9289,3.755 5.09178,4.9566 2.16288,1.2016 4.56608,1.8024 7.2096,1.8024 3.9052,0 7.1345,-1.26168 9.6879,-3.78504 l 1.44192,1.48698 c -1.3518,1.44192 -3.004,2.53838 -4.9566,3.28938 -1.92256,0.751 -4.01034,1.1265 -6.26334,1.1265 z"
             id="path866" />
          <path
             style="color:#000000;font-style:normal;font-variant:normal;font-weight:normal;font-stretch:normal;font-size:medium;line-height:normal;font-family:Montserrat;-inkscape-font-specification:Montserrat;font-variant-ligatures:normal;font-variant-position:normal;font-variant-caps:normal;font-variant-numeric:normal;font-variant-alternates:normal;font-variant-east-asian:normal;font-feature-settings:normal;font-variation-settings:normal;text-indent:0;text-align:start;text-decoration:none;text-decoration-line:none;text-decoration-style:solid;text-decoration-color:#000000;letter-spacing:normal;word-spacing:normal;text-transform:none;writing-mode:lr-tb;direction:ltr;text-orientation:mixed;dominant-baseline:auto;baseline-shift:baseline;text-anchor:start;white-space:normal;shape-padding:0;shape-margin:0;inline-size:0;clip-rule:nonzero;display:inline;overflow:visible;visibility:visible;isolation:auto;mix-blend-mode:normal;color-interpolation:sRGB;color-interpolation-filters:linearRGB;solid-color:#000000;solid-opacity:1;vector-effect:none;fill-opacity:1;fill-rule:nonzero;stroke:none;stroke-width:1;stroke-linecap:butt;stroke-linejoin:miter;stroke-miterlimit:4;stroke-dasharray:none;stroke-dashoffset:0;stroke-opacity:1;color-rendering:auto;image-rendering:auto;shape-rendering:auto;text-rendering:auto;enable-background:accumulate;stop-color:#000000;stop-opacity:1"
             d="m 220.26953,59.179688 c -3.16855,-10e-7 -6.05303,0.710417 -8.62305,2.134765 h -0.002 -0.002 c -2.53619,1.42274 -4.55855,3.399341 -6.04297,5.904297 v 0.002 l -0.002,0.002 c -1.45716,2.511269 -2.18555,5.341527 -2.18555,8.453125 0,3.111598 0.72839,5.939904 2.18555,8.451172 l 0.002,0.002 v 0.002 c 1.48442,2.504956 3.50678,4.481557 6.04297,5.904297 h 0.002 0.002 c 2.57002,1.424349 5.4545,2.136719 8.62305,2.136719 2.30856,0 4.4611,-0.387025 6.44531,-1.162109 2.0155,-0.775592 3.73493,-1.914782 5.13868,-3.41211 l 0.32617,-0.347656 -2.125,-2.191406 -0.35938,0.353515 c -2.46275,2.43378 -5.53843,3.640625 -9.33593,3.640625 -2.56777,0 -4.87952,-0.578678 -6.9668,-1.738281 -2.08986,-1.161034 -3.71422,-2.744937 -4.90235,-4.773437 v 0.0039 c -1.18741,-2.056252 -1.77929,-4.334205 -1.77929,-6.869141 0,-2.534936 0.59331,-4.797415 1.77929,-6.822265 v -0.002 c 1.1886,-2.058292 2.81403,-3.656231 4.90235,-4.816406 2.08728,-1.159602 4.39903,-1.738281 6.9668,-1.738281 3.82964,0 6.90501,1.19372 9.33593,3.595703 l 0.35938,0.353516 2.125,-2.191406 -0.32617,-0.347657 c -1.40288,-1.496395 -3.10717,-2.621261 -5.09375,-3.367187 l -0.006,-0.002 c -1.9835,-0.773923 -4.14874,-1.158203 -6.48438,-1.158203 z m 0,1 c 2.22822,0 4.26687,0.365202 6.12695,1.091796 h 0.002 l 0.004,0.002 c 1.69847,0.636926 3.12666,1.59456 4.35743,2.808593 l -0.75586,0.78125 c -2.56147,-2.348572 -5.79318,-3.566406 -9.64453,-3.566406 -2.71928,0 -5.21465,0.621637 -7.45313,1.865234 -2.23744,1.243025 -4.00656,2.980111 -5.28125,5.1875 -1.27643,2.180195 -1.91406,4.635062 -1.91406,7.326172 0,2.692024 0.63819,5.159713 1.91406,7.369141 l 0.002,0.002 c 1.27516,2.1771 3.0434,3.898459 5.2793,5.140625 2.23848,1.243597 4.73385,1.865234 7.45313,1.865234 3.82632,0 7.05816,-1.232902 9.64453,-3.609375 l 0.75586,0.779297 c -1.23371,1.217526 -2.67694,2.190349 -4.40625,2.855469 h -0.002 l -0.002,0.002 c -1.8609,0.726916 -3.88263,1.091797 -6.08008,1.091797 -3.01902,0 -5.7205,-0.671024 -8.13672,-2.009766 h -0.002 c -2.38843,-1.340155 -4.26905,-3.177868 -5.66797,-5.537109 l -0.002,-0.0039 c -1.36514,-2.35425 -2.04883,-4.990419 -2.04883,-7.945313 0,-2.956482 0.68418,-5.59596 2.05078,-7.951172 1.39871,-2.358897 3.28004,-4.195051 5.66797,-5.535156 l 0.002,-0.002 c 2.41606,-1.338511 5.11796,-2.007813 8.13672,-2.007812 z"
             id="path868" />
        </g>
        <g
           transform="matrix(0.8693323,0,0,0.8693323,31.933675,11.798363)"
           id="g870"
           style="opacity:1">
          <path
             style="color:#000000;font-style:normal;font-variant:normal;font-weight:normal;font-stretch:normal;font-size:medium;line-height:normal;font-family:Montserrat;-inkscape-font-specification:Montserrat;font-variant-ligatures:normal;font-variant-position:normal;font-variant-caps:normal;font-variant-numeric:normal;font-variant-alternates:normal;font-variant-east-asian:normal;font-feature-settings:normal;font-variation-settings:normal;text-indent:0;text-align:start;text-decoration:none;text-decoration-line:none;text-decoration-style:solid;text-decoration-color:#000000;letter-spacing:normal;word-spacing:normal;text-transform:none;writing-mode:lr-tb;direction:ltr;text-orientation:mixed;dominant-baseline:auto;baseline-shift:baseline;text-anchor:start;white-space:normal;shape-padding:0;shape-margin:0;inline-size:0;clip-rule:nonzero;display:inline;overflow:visible;visibility:visible;isolation:auto;mix-blend-mode:normal;color-interpolation:sRGB;color-interpolation-filters:linearRGB;solid-color:#000000;solid-opacity:1;vector-effect:none;fill:#174856;fill-opacity:1;fill-rule:nonzero;stroke:none;stroke-width:1;stroke-linecap:butt;stroke-linejoin:miter;stroke-miterlimit:4;stroke-dasharray:none;stroke-dashoffset:0;stroke-opacity:1;color-rendering:auto;image-rendering:auto;shape-rendering:auto;text-rendering:auto;enable-background:accumulate;stop-color:#000000;stop-opacity:1"
             d="m 238.50929,58.011516 h 2.253 v 33.434521 h -2.253 z"
             id="path872" />
          <path
             style="color:#000000;font-style:normal;font-variant:normal;font-weight:normal;font-stretch:normal;font-size:medium;line-height:normal;font-family:Montserrat;-inkscape-font-specification:Montserrat;font-variant-ligatures:normal;font-variant-position:normal;font-variant-caps:normal;font-variant-numeric:normal;font-variant-alternates:normal;font-variant-east-asian:normal;font-feature-settings:normal;font-variation-settings:normal;text-indent:0;text-align:start;text-decoration:none;text-decoration-line:none;text-decoration-style:solid;text-decoration-color:#000000;letter-spacing:normal;word-spacing:normal;text-transform:none;writing-mode:lr-tb;direction:ltr;text-orientation:mixed;dominant-baseline:auto;baseline-shift:baseline;text-anchor:start;white-space:normal;shape-padding:0;shape-margin:0;inline-size:0;clip-rule:nonzero;display:inline;overflow:visible;visibility:visible;isolation:auto;mix-blend-mode:normal;color-interpolation:sRGB;color-interpolation-filters:linearRGB;solid-color:#000000;solid-opacity:1;vector-effect:none;fill-opacity:1;fill-rule:nonzero;stroke:none;stroke-width:1;stroke-linecap:butt;stroke-linejoin:miter;stroke-miterlimit:4;stroke-dasharray:none;stroke-dashoffset:0;stroke-opacity:1;color-rendering:auto;image-rendering:auto;shape-rendering:auto;text-rendering:auto;enable-background:accumulate;stop-color:#000000;stop-opacity:1"
             d="m 238.00977,57.511719 v 0.5 33.933593 h 3.25195 V 57.511719 Z m 1,1 h 1.25195 v 32.433593 h -1.25195 z"
             id="path874" />
        </g>
        <g
           transform="matrix(0.8693323,0,0,0.8693323,31.933675,11.798363)"
           id="g876"
           style="opacity:1">
          <path
             style="color:#000000;font-style:normal;font-variant:normal;font-weight:normal;font-stretch:normal;font-size:medium;line-height:normal;font-family:Montserrat;-inkscape-font-specification:Montserrat;font-variant-ligatures:normal;font-variant-position:normal;font-variant-caps:normal;font-variant-numeric:normal;font-variant-alternates:normal;font-variant-east-asian:normal;font-feature-settings:normal;font-variation-settings:normal;text-indent:0;text-align:start;text-decoration:none;text-decoration-line:none;text-decoration-style:solid;text-decoration-color:#000000;letter-spacing:normal;word-spacing:normal;text-transform:none;writing-mode:lr-tb;direction:ltr;text-orientation:mixed;dominant-baseline:auto;baseline-shift:baseline;text-anchor:start;white-space:normal;shape-padding:0;shape-margin:0;inline-size:0;clip-rule:nonzero;display:inline;overflow:visible;visibility:visible;isolation:auto;mix-blend-mode:normal;color-interpolation:sRGB;color-interpolation-filters:linearRGB;solid-color:#000000;solid-opacity:1;vector-effect:none;fill:#174856;fill-opacity:1;fill-rule:nonzero;stroke:none;stroke-width:1;stroke-linecap:butt;stroke-linejoin:miter;stroke-miterlimit:4;stroke-dasharray:none;stroke-dashoffset:0;stroke-opacity:1;color-rendering:auto;image-rendering:auto;shape-rendering:auto;text-rendering:auto;enable-background:accumulate;stop-color:#000000;stop-opacity:1"
             d="m 259.49458,91.626277 c -2.22296,0 -4.23564,-0.51068 -6.03804,-1.53204 -1.77236,-1.02136 -3.16922,-2.43324 -4.19058,-4.23564 -1.02136,-1.83244 -1.53204,-3.89018 -1.53204,-6.17322 0,-2.28304 0.51068,-4.32576 1.53204,-6.12816 1.02136,-1.83244 2.41822,-3.25934 4.19058,-4.2807 1.8024,-1.02136 3.81508,-1.53204 6.03804,-1.53204 2.22296,0 4.22062,0.51068 5.99298,1.53204 1.8024,1.02136 3.21428,2.44826 4.23564,4.2807 1.02136,1.8024 1.53204,3.84512 1.53204,6.12816 0,2.28304 -0.51068,4.34078 -1.53204,6.17322 -1.02136,1.8024 -2.43324,3.21428 -4.23564,4.23564 -1.77236,1.02136 -3.77002,1.53204 -5.99298,1.53204 z m 0,-2.0277 c 1.8024,0 3.40954,-0.42056 4.82142,-1.26168 1.44192,-0.84112 2.56842,-2.01268 3.3795,-3.51468 0.84112,-1.502 1.26168,-3.21428 1.26168,-5.13684 0,-1.92256 -0.42056,-3.63484 -1.26168,-5.13684 -0.81108,-1.502 -1.93758,-2.67356 -3.3795,-3.51468 -1.41188,-0.84112 -3.01902,-1.26168 -4.82142,-1.26168 -1.8024,0 -3.42456,0.42056 -4.86648,1.26168 -1.41188,0.84112 -2.53838,2.01268 -3.3795,3.51468 -0.81108,1.502 -1.21662,3.21428 -1.21662,5.13684 0,1.92256 0.40554,3.63484 1.21662,5.13684 0.84112,1.502 1.96762,2.67356 3.3795,3.51468 1.44192,0.84112 3.06408,1.26168 4.86648,1.26168 z"
             id="path878" />
          <path
             style="color:#000000;font-style:normal;font-variant:normal;font-weight:normal;font-stretch:normal;font-size:medium;line-height:normal;font-family:Montserrat;-inkscape-font-specification:Montserrat;font-variant-ligatures:normal;font-variant-position:normal;font-variant-caps:normal;font-variant-numeric:normal;font-variant-alternates:normal;font-variant-east-asian:normal;font-feature-settings:normal;font-variation-settings:normal;text-indent:0;text-align:start;text-decoration:none;text-decoration-line:none;text-decoration-style:solid;text-decoration-color:#000000;letter-spacing:normal;word-spacing:normal;text-transform:none;writing-mode:lr-tb;direction:ltr;text-orientation:mixed;dominant-baseline:auto;baseline-shift:baseline;text-anchor:start;white-space:normal;shape-padding:0;shape-margin:0;inline-size:0;clip-rule:nonzero;display:inline;overflow:visible;visibility:visible;isolation:auto;mix-blend-mode:normal;color-interpolation:sRGB;color-interpolation-filters:linearRGB;solid-color:#000000;solid-opacity:1;vector-effect:none;fill-opacity:1;fill-rule:nonzero;stroke:none;stroke-width:1;stroke-linecap:butt;stroke-linejoin:miter;stroke-miterlimit:4;stroke-dasharray:none;stroke-dashoffset:0;stroke-opacity:1;color-rendering:auto;image-rendering:auto;shape-rendering:auto;text-rendering:auto;enable-background:accumulate;stop-color:#000000;stop-opacity:1"
             d="m 259.49414,67.244141 c -2.29954,0 -4.40409,0.532827 -6.2832,1.597656 h -0.002 l -0.002,0.002 c -1.84844,1.065203 -3.31495,2.565339 -4.37695,4.470703 v -0.0039 c -1.06601,1.881182 -1.5957,4.017398 -1.5957,6.375 0,2.357601 0.53135,4.506442 1.5957,6.416015 v 0.002 0.002 c 1.06255,1.875085 2.53035,3.357731 4.37695,4.421875 l 0.002,0.002 h 0.002 c 1.87911,1.064828 3.98366,1.597656 6.2832,1.597656 2.29862,0 4.39007,-0.531996 6.24024,-1.597656 l 0.002,-0.002 c 1.87576,-1.063488 3.35875,-2.545774 4.42187,-4.421875 v -0.002 l 0.002,-0.002 c 1.06435,-1.909573 1.5957,-4.058414 1.5957,-6.416015 0,-2.356018 -0.53113,-4.490833 -1.5957,-6.371094 v -0.002 c -1.06251,-1.905693 -2.5467,-3.404474 -4.42383,-4.46875 l -0.002,-0.002 C 263.88425,67.776096 261.7928,67.2441 259.49418,67.2441 Z m 0,1 c 2.14638,0 4.05013,0.488636 5.74414,1.464843 l 0.002,0.002 c 1.72606,0.978098 3.06718,2.332149 4.04688,4.089843 v 0.002 l 0.002,0.002 c 0.97672,1.723617 1.4668,3.67238 1.4668,5.880859 0,2.208478 -0.49038,4.174381 -1.46875,5.929687 -0.97894,1.726027 -2.32027,3.066514 -4.04688,4.044922 h -0.002 c -1.69401,0.976208 -3.59776,1.466797 -5.74414,1.466797 -2.14638,0 -4.06532,-0.488905 -5.79102,-1.466797 h 0.004 c -1.69685,-0.977847 -3.02395,-2.317073 -4.00391,-4.044922 l -0.002,-0.002 c -2.6e-4,-4.68e-4 2.7e-4,-0.0015 0,-0.002 -0.97695,-1.754341 -1.46679,-3.718902 -1.46679,-5.925781 0,-2.208479 0.49008,-4.157242 1.46679,-5.880859 v -0.002 l 0.002,-0.002 c 0.97999,-1.758202 2.30554,-3.112494 4,-4.089843 l 0.004,-0.002 c 1.7247,-0.976449 3.64231,-1.464843 5.78711,-1.464843 z m 0,1.027343 c -1.88018,0 -3.59694,0.443271 -5.11719,1.330078 l -0.002,0.002 h -0.002 c -1.4868,0.885751 -2.6806,2.129828 -3.56055,3.701172 l -0.002,0.002 -0.002,0.0039 c -0.85346,1.58048 -1.27734,3.382127 -1.27734,5.375 0,1.992872 0.42388,3.79452 1.27734,5.375 l 0.002,0.002 0.002,0.0039 c 0.87995,1.571344 2.07375,2.813468 3.56055,3.699219 l 0.002,0.002 0.002,0.002 c 1.52025,0.886808 3.23701,1.328125 5.11719,1.328125 1.88018,0 3.58588,-0.443031 5.07813,-1.332031 1.51422,-0.884459 2.70831,-2.127239 3.55859,-3.699219 v -0.002 c 0.88496,-1.580972 1.32617,-3.384095 1.32617,-5.378906 0,-1.994811 -0.44121,-3.797934 -1.32617,-5.378906 -0.85053,-1.573025 -2.0434,-2.818359 -3.55859,-3.703125 l -0.004,-0.002 c -1.49135,-0.887504 -3.19562,-1.330078 -5.07422,-1.330078 z m 0,1 c 1.72462,0 3.2349,0.398167 4.56641,1.191407 l 0.002,0.002 h 0.002 c 1.36528,0.796411 2.42065,1.892977 3.19141,3.320312 l 0.002,0.0039 0.002,0.0039 c 0.79668,1.422649 1.19726,3.042935 1.19726,4.892578 0,1.849643 -0.40058,3.469929 -1.19726,4.892578 l -0.002,0.0039 -0.002,0.002 c -0.77076,1.427335 -1.82613,2.523902 -3.19141,3.320313 l -0.002,0.002 -0.002,0.002 c -1.33151,0.79324 -2.84179,1.189453 -4.56641,1.189453 -1.72462,0 -3.24968,-0.397927 -4.61328,-1.193359 -1.33272,-0.795075 -2.39051,-1.892489 -3.19141,-3.320313 v -0.002 c -0.76813,-1.423138 -1.1582,-3.044928 -1.1582,-4.896484 0,-1.84896 0.38831,-3.470876 1.1543,-4.892578 l 0.002,-0.002 c 0.80137,-1.430112 1.85893,-2.53032 3.19336,-3.326172 l 0.004,-0.002 c 1.36263,-0.793959 2.88635,-1.191407 4.60937,-1.191407 z"
             id="path880" />
        </g>
        <g
           transform="matrix(0.8693323,0,0,0.8693323,31.933675,11.798363)"
           id="g882"
           style="opacity:1">
          <path
             style="color:#000000;font-style:normal;font-variant:normal;font-weight:normal;font-stretch:normal;font-size:medium;line-height:normal;font-family:Montserrat;-inkscape-font-specification:Montserrat;font-variant-ligatures:normal;font-variant-position:normal;font-variant-caps:normal;font-variant-numeric:normal;font-variant-alternates:normal;font-variant-east-asian:normal;font-feature-settings:normal;font-variation-settings:normal;text-indent:0;text-align:start;text-decoration:none;text-decoration-line:none;text-decoration-style:solid;text-decoration-color:#000000;letter-spacing:normal;word-spacing:normal;text-transform:none;writing-mode:lr-tb;direction:ltr;text-orientation:mixed;dominant-baseline:auto;baseline-shift:baseline;text-anchor:start;white-space:normal;shape-padding:0;shape-margin:0;inline-size:0;clip-rule:nonzero;display:inline;overflow:visible;visibility:visible;isolation:auto;mix-blend-mode:normal;color-interpolation:sRGB;color-interpolation-filters:linearRGB;solid-color:#000000;solid-opacity:1;vector-effect:none;fill:#174856;fill-opacity:1;fill-rule:nonzero;stroke:none;stroke-width:1;stroke-linecap:butt;stroke-linejoin:miter;stroke-miterlimit:4;stroke-dasharray:none;stroke-dashoffset:0;stroke-opacity:1;color-rendering:auto;image-rendering:auto;shape-rendering:auto;text-rendering:auto;enable-background:accumulate;stop-color:#000000;stop-opacity:1"
             d="m 298.79323,67.924717 v 23.52132 h -2.16288 v -5.04672 c -0.78104,1.6522 -1.93758,2.94392 -3.46962,3.87516 -1.53204,0.9012 -3.33444,1.3518 -5.4072,1.3518 -3.06408,0 -5.46728,-0.85614 -7.2096,-2.56842 -1.74232,-1.71228 -2.61348,-4.17556 -2.61348,-7.38984 v -13.7433 h 2.253 v 13.56306 c 0,2.64352 0.6759,4.6562 2.0277,6.03804 1.3518,1.38184 3.25934,2.07276 5.72262,2.07276 2.64352,0 4.7313,-0.8261 6.26334,-2.4783 1.56208,-1.6522 2.34312,-3.87516 2.34312,-6.66888 v -12.52668 z"
             id="path884" />
          <path
             style="color:#000000;font-style:normal;font-variant:normal;font-weight:normal;font-stretch:normal;font-size:medium;line-height:normal;font-family:Montserrat;-inkscape-font-specification:Montserrat;font-variant-ligatures:normal;font-variant-position:normal;font-variant-caps:normal;font-variant-numeric:normal;font-variant-alternates:normal;font-variant-east-asian:normal;font-feature-settings:normal;font-variation-settings:normal;text-indent:0;text-align:start;text-decoration:none;text-decoration-line:none;text-decoration-style:solid;text-decoration-color:#000000;letter-spacing:normal;word-spacing:normal;text-transform:none;writing-mode:lr-tb;direction:ltr;text-orientation:mixed;dominant-baseline:auto;baseline-shift:baseline;text-anchor:start;white-space:normal;shape-padding:0;shape-margin:0;inline-size:0;clip-rule:nonzero;display:inline;overflow:visible;visibility:visible;isolation:auto;mix-blend-mode:normal;color-interpolation:sRGB;color-interpolation-filters:linearRGB;solid-color:#000000;solid-opacity:1;vector-effect:none;fill-opacity:1;fill-rule:nonzero;stroke:none;stroke-width:1;stroke-linecap:butt;stroke-linejoin:miter;stroke-miterlimit:4;stroke-dasharray:none;stroke-dashoffset:0;stroke-opacity:1;color-rendering:auto;image-rendering:auto;shape-rendering:auto;text-rendering:auto;enable-background:accumulate;stop-color:#000000;stop-opacity:1"
             d="m 277.42969,67.423828 v 14.244141 c 0,3.304622 0.90979,5.924181 2.76367,7.746093 1.84683,1.814988 4.40333,2.712891 7.56055,2.712891 2.14522,0 4.04317,-0.470711 5.66015,-1.421875 l 0.004,-0.002 0.002,-0.002 c 1.11189,-0.675855 1.97174,-1.604551 2.71094,-2.644531 v 3.888671 h 3.16211 v -24.52139 h -0.5 -2.75195 v 13.027344 c 0,2.70053 -0.74161,4.776202 -2.20704,6.326172 l -0.002,0.002 -0.002,0.002 c -1.43455,1.547063 -3.35713,2.316406 -5.89649,2.316406 -2.36978,0 -4.11959,-0.648557 -5.36523,-1.921875 -1.24035,-1.267908 -1.88477,-3.129207 -1.88477,-5.6875 V 67.423828 Z m 1,1 h 1.2539 v 13.064453 c 0,2.728748 0.70667,4.890947 2.16993,6.386719 1.45796,1.490363 3.5233,2.222656 6.08007,2.222656 2.74599,0 4.99766,-0.879593 6.62696,-2.634765 1.65873,-1.754431 2.48047,-4.124809 2.48047,-7.011719 V 68.423828 h 1.25195 v 22.521484 h -1.16211 v -4.546874 l -0.95313,-0.212891 c -0.74151,1.568588 -1.82247,2.775876 -3.27148,3.658203 -5.1e-4,3.01e-4 -10e-4,-3.01e-4 -0.002,0 -1.44678,0.850638 -3.15081,1.283203 -5.15039,1.283203 -2.97095,0 -5.22157,-0.816208 -6.85938,-2.425781 -1.63076,-1.602648 -2.46484,-3.909266 -2.46484,-7.033203 z"
             id="path886" />
        </g>
        <g
           transform="matrix(0.8693323,0,0,0.8693323,31.933675,11.798363)"
           id="g888"
           style="opacity:1">
          <path
             style="color:#000000;font-style:normal;font-variant:normal;font-weight:normal;font-stretch:normal;font-size:medium;line-height:normal;font-family:Montserrat;-inkscape-font-specification:Montserrat;font-variant-ligatures:normal;font-variant-position:normal;font-variant-caps:normal;font-variant-numeric:normal;font-variant-alternates:normal;font-variant-east-asian:normal;font-feature-settings:normal;font-variation-settings:normal;text-indent:0;text-align:start;text-decoration:none;text-decoration-line:none;text-decoration-style:solid;text-decoration-color:#000000;letter-spacing:normal;word-spacing:normal;text-transform:none;writing-mode:lr-tb;direction:ltr;text-orientation:mixed;dominant-baseline:auto;baseline-shift:baseline;text-anchor:start;white-space:normal;shape-padding:0;shape-margin:0;inline-size:0;clip-rule:nonzero;display:inline;overflow:visible;visibility:visible;isolation:auto;mix-blend-mode:normal;color-interpolation:sRGB;color-interpolation-filters:linearRGB;solid-color:#000000;solid-opacity:1;vector-effect:none;fill:#174856;fill-opacity:1;fill-rule:nonzero;stroke:none;stroke-width:1;stroke-linecap:butt;stroke-linejoin:miter;stroke-miterlimit:4;stroke-dasharray:none;stroke-dashoffset:0;stroke-opacity:1;color-rendering:auto;image-rendering:auto;shape-rendering:auto;text-rendering:auto;enable-background:accumulate;stop-color:#000000;stop-opacity:1"
             d="m 329.29534,58.011516 v 33.434521 h -2.20794 v -5.54238 c -0.93124,1.83244 -2.23798,3.24432 -3.92022,4.23564 -1.68224,0.99132 -3.58978,1.48698 -5.72262,1.48698 -2.19292,0 -4.17556,-0.51068 -5.94792,-1.53204 -1.77236,-1.02136 -3.16922,-2.43324 -4.19058,-4.23564 -0.99132,-1.8024 -1.48698,-3.86014 -1.48698,-6.17322 0,-2.31308 0.49566,-4.37082 1.48698,-6.17322 1.02136,-1.83244 2.41822,-3.24432 4.19058,-4.23564 1.77236,-1.02136 3.755,-1.53204 5.94792,-1.53204 2.1028,0 3.9803,0.49566 5.6325,1.48698 1.68224,0.99132 3.004,2.37316 3.96528,4.14552 V 58.011516 Z m -11.7156,31.587061 c 1.8024,0 3.40954,-0.42056 4.82142,-1.26168 1.44192,-0.84112 2.56842,-2.01268 3.3795,-3.51468 0.84112,-1.502 1.26168,-3.21428 1.26168,-5.13684 0,-1.92256 -0.42056,-3.63484 -1.26168,-5.13684 -0.81108,-1.502 -1.93758,-2.67356 -3.3795,-3.51468 -1.41188,-0.84112 -3.01902,-1.26168 -4.82142,-1.26168 -1.8024,0 -3.42456,0.42056 -4.86648,1.26168 -1.41188,0.84112 -2.53838,2.01268 -3.3795,3.51468 -0.81108,1.502 -1.21662,3.21428 -1.21662,5.13684 0,1.92256 0.40554,3.63484 1.21662,5.13684 0.84112,1.502 1.96762,2.67356 3.3795,3.51468 1.44192,0.84112 3.06408,1.26168 4.86648,1.26168 z"
             id="path890" />
          <path
             style="color:#000000;font-style:normal;font-variant:normal;font-weight:normal;font-stretch:normal;font-size:medium;line-height:normal;font-family:Montserrat;-inkscape-font-specification:Montserrat;font-variant-ligatures:normal;font-variant-position:normal;font-variant-caps:normal;font-variant-numeric:normal;font-variant-alternates:normal;font-variant-east-asian:normal;font-feature-settings:normal;font-variation-settings:normal;text-indent:0;text-align:start;text-decoration:none;text-decoration-line:none;text-decoration-style:solid;text-decoration-color:#000000;letter-spacing:normal;word-spacing:normal;text-transform:none;writing-mode:lr-tb;direction:ltr;text-orientation:mixed;dominant-baseline:auto;baseline-shift:baseline;text-anchor:start;white-space:normal;shape-padding:0;shape-margin:0;inline-size:0;clip-rule:nonzero;display:inline;overflow:visible;visibility:visible;isolation:auto;mix-blend-mode:normal;color-interpolation:sRGB;color-interpolation-filters:linearRGB;solid-color:#000000;solid-opacity:1;vector-effect:none;fill-opacity:1;fill-rule:nonzero;stroke:none;stroke-width:1;stroke-linecap:butt;stroke-linejoin:miter;stroke-miterlimit:4;stroke-dasharray:none;stroke-dashoffset:0;stroke-opacity:1;color-rendering:auto;image-rendering:auto;shape-rendering:auto;text-rendering:auto;enable-background:accumulate;stop-color:#000000;stop-opacity:1"
             d="m 326.54297,57.511719 v 14.330078 c -0.88749,-1.208117 -1.91319,-2.2748 -3.20899,-3.039063 l -0.004,-0.002 c -1.73155,-1.037962 -3.70497,-1.55664 -5.88477,-1.55664 -2.2699,0 -4.34801,0.534313 -6.19726,1.599609 -1.84891,1.035301 -3.31727,2.521073 -4.37891,4.425781 l -0.002,0.002 c -1.03485,1.881538 -1.54883,4.029554 -1.54883,6.414063 0,2.384508 0.51398,4.532525 1.54883,6.414062 l 0.002,0.002 0.002,0.0039 c 1.06255,1.875085 2.5284,3.357731 4.375,4.421875 1.84966,1.065902 3.92868,1.599609 6.19922,1.599609 2.21031,0 4.2147,-0.518397 5.97657,-1.556641 1.28923,-0.759729 2.29751,-1.840798 3.16601,-3.070312 v 4.445312 h 3.20703 V 57.511719 h -0.5 z m 1,1 h 1.25195 v 32.433593 h -1.20703 v -5.041015 l -0.94531,-0.226563 c -0.89265,1.7565 -2.12761,3.087856 -3.72852,4.03125 -1.60261,0.944396 -3.41337,1.417969 -5.46875,1.417969 -2.11529,0 -4.00415,-0.489979 -5.69922,-1.466797 -1.69605,-0.977384 -3.02213,-2.316307 -4.00195,-4.042968 v -0.002 c -0.94721,-1.722883 -1.42578,-3.688723 -1.42578,-5.929687 0,-2.240699 0.47684,-4.206951 1.42383,-5.929688 l 0.002,-0.002 c 0.98001,-1.757275 2.30337,-3.094239 3.99609,-4.041015 l 0.004,-0.002 0.002,-0.002 c 1.69507,-0.976817 3.58393,-1.464843 5.69922,-1.464843 2.02423,0 3.80305,0.472843 5.375,1.416015 l 0.002,0.002 c 1.60584,0.946299 2.85962,2.253872 3.78125,3.953125 l 0.93945,-0.238281 z m -9.96289,10.759765 c -1.88018,0 -3.5989,0.443271 -5.11914,1.330078 l -0.002,0.002 h -0.002 c -1.4868,0.885751 -2.67864,2.129828 -3.55859,3.701172 l -0.002,0.002 -0.002,0.0039 c -0.85346,1.58048 -1.27734,3.382127 -1.27734,5.375 0,1.992872 0.42388,3.79452 1.27734,5.375 l 0.002,0.002 0.002,0.0039 c 0.87995,1.571344 2.07179,2.813468 3.55859,3.699219 l 0.002,0.002 0.002,0.002 c 1.52024,0.886808 3.23896,1.328125 5.11914,1.328125 1.88018,0 3.58392,-0.443031 5.07617,-1.332031 1.51423,-0.884459 2.71027,-2.127238 3.56055,-3.699219 v -0.002 c 0.88496,-1.580972 1.32617,-3.384096 1.32617,-5.378906 0,-1.994811 -0.44121,-3.797935 -1.32617,-5.378906 -0.85053,-1.573025 -2.04536,-2.818359 -3.56055,-3.703125 l -0.004,-0.002 c -1.49135,-0.887504 -3.19366,-1.330078 -5.07226,-1.330078 z m 0,1 c 1.72462,0 3.23294,0.398167 4.56445,1.191407 l 0.002,0.002 h 0.002 c 1.36527,0.796411 2.42064,1.892977 3.1914,3.320312 l 0.002,0.0039 0.002,0.0039 c 0.79668,1.422649 1.19922,3.042935 1.19922,4.892578 0,1.849643 -0.40254,3.469929 -1.19922,4.892578 l -0.002,0.0039 -0.002,0.002 c -0.77076,1.427335 -1.82613,2.523902 -3.1914,3.320313 l -0.002,0.002 -0.002,0.002 c -1.33151,0.79324 -2.83983,1.189453 -4.56445,1.189453 -1.72462,0 -3.25164,-0.397927 -4.61524,-1.193359 -1.33271,-0.795075 -2.3905,-1.892488 -3.1914,-3.320313 v -0.002 c -0.76813,-1.423138 -1.15625,-3.044928 -1.15625,-4.896484 0,-1.84896 0.38635,-3.470876 1.15234,-4.892578 l 0.002,-0.002 c 0.80138,-1.430112 1.85893,-2.53032 3.19336,-3.326172 l 0.004,-0.002 c 1.36264,-0.793959 2.8883,-1.191407 4.61133,-1.191407 z"
             id="path892" />
        </g>
        <g
           transform="matrix(0.8693323,0,0,0.8693323,31.933675,11.798363)"
           id="g858"
           style="opacity:1">
          <path
             style="color:#000000;font-style:normal;font-variant:normal;font-weight:normal;font-stretch:normal;font-size:medium;line-height:normal;font-family:Montserrat;-inkscape-font-specification:Montserrat;font-variant-ligatures:normal;font-variant-position:normal;font-variant-caps:normal;font-variant-numeric:normal;font-variant-alternates:normal;font-variant-east-asian:normal;font-feature-settings:normal;font-variation-settings:normal;text-indent:0;text-align:start;text-decoration:none;text-decoration-line:none;text-decoration-style:solid;text-decoration-color:#000000;letter-spacing:normal;word-spacing:normal;text-transform:none;writing-mode:lr-tb;direction:ltr;text-orientation:mixed;dominant-baseline:auto;baseline-shift:baseline;text-anchor:start;white-space:normal;shape-padding:0;shape-margin:0;inline-size:0;clip-rule:nonzero;display:inline;overflow:visible;visibility:visible;isolation:auto;mix-blend-mode:normal;color-interpolation:sRGB;color-interpolation-filters:linearRGB;solid-color:#000000;solid-opacity:1;vector-effect:none;fill:#174856;fill-opacity:1;fill-rule:nonzero;stroke:none;stroke-width:1;stroke-linecap:butt;stroke-linejoin:miter;stroke-miterlimit:4;stroke-dasharray:none;stroke-dashoffset:0;stroke-opacity:1;color-rendering:auto;image-rendering:auto;shape-rendering:auto;text-rendering:auto;enable-background:accumulate;stop-color:#000000;stop-opacity:1"
             d="m 376.36474,59.904036 -14.05872,31.542001 h -2.29806 L 345.94924,59.904036 h 2.52336 l 12.75198,28.568041 12.75198,-28.568041 z"
             id="path860" />
          <path
             style="color:#000000;font-style:normal;font-variant:normal;font-weight:normal;font-stretch:normal;font-size:medium;line-height:normal;font-family:Montserrat;-inkscape-font-specification:Montserrat;font-variant-ligatures:normal;font-variant-position:normal;font-variant-caps:normal;font-variant-numeric:normal;font-variant-alternates:normal;font-variant-east-asian:normal;font-feature-settings:normal;font-variation-settings:normal;text-indent:0;text-align:start;text-decoration:none;text-decoration-line:none;text-decoration-style:solid;text-decoration-color:#000000;letter-spacing:normal;word-spacing:normal;text-transform:none;writing-mode:lr-tb;direction:ltr;text-orientation:mixed;dominant-baseline:auto;baseline-shift:baseline;text-anchor:start;white-space:normal;shape-padding:0;shape-margin:0;inline-size:0;clip-rule:nonzero;display:inline;overflow:visible;visibility:visible;isolation:auto;mix-blend-mode:normal;color-interpolation:sRGB;color-interpolation-filters:linearRGB;solid-color:#000000;solid-opacity:1;vector-effect:none;fill-opacity:1;fill-rule:nonzero;stroke:none;stroke-width:1;stroke-linecap:butt;stroke-linejoin:miter;stroke-miterlimit:4;stroke-dasharray:none;stroke-dashoffset:0;stroke-opacity:1;color-rendering:auto;image-rendering:auto;shape-rendering:auto;text-rendering:auto;enable-background:accumulate;stop-color:#000000;stop-opacity:1"
             d="m 345.17969,59.404297 14.5039,32.541015 h 2.94727 l 14.50391,-32.541015 h -0.76954 -2.71289 L 361.22461,87.244141 348.79688,59.404297 Z m 1.53906,1 h 1.42969 l 13.07617,29.294922 13.07617,-29.294922 h 1.29492 l -13.61328,30.541015 h -1.65039 z"
             id="path862" />
        </g>
      </g>
    </g>
  </g>
</svg>
