<?xml version="1.0" encoding="UTF-8" standalone="no"?>
<svg
   xmlns:dc="http://purl.org/dc/elements/1.1/"
   xmlns:cc="http://creativecommons.org/ns#"
   xmlns:rdf="http://www.w3.org/1999/02/22-rdf-syntax-ns#"
   xmlns:svg="http://www.w3.org/2000/svg"
   xmlns="http://www.w3.org/2000/svg"
   xmlns:sodipodi="http://sodipodi.sourceforge.net/DTD/sodipodi-0.dtd"
   xmlns:inkscape="http://www.inkscape.org/namespaces/inkscape"
   inkscape:version="1.0 (4035a4f, 2020-05-01)"
   sodipodi:docname="tm.svg"
   id="svg904"
   version="1.1"
   height="24"
   width="24"
   viewBox="0 0 24 24">
  <metadata
     id="metadata910">
    <rdf:RDF>
      <cc:Work
         rdf:about="">
        <dc:format>image/svg+xml</dc:format>
        <dc:type
           rdf:resource="http://purl.org/dc/dcmitype/StillImage" />
      </cc:Work>
    </rdf:RDF>
  </metadata>
  <defs
     id="defs908" />
  <sodipodi:namedview
     inkscape:current-layer="svg904"
     inkscape:window-maximized="1"
     inkscape:window-y="23"
     inkscape:window-x="0"
     inkscape:cy="6.810999"
     inkscape:cx="-118.34085"
     inkscape:zoom="2.8050726"
     showgrid="false"
     id="namedview906"
     inkscape:window-height="1069"
     inkscape:window-width="1920"
     inkscape:pageshadow="2"
     inkscape:pageopacity="0"
     guidetolerance="10"
     gridtolerance="10"
     objecttolerance="10"
     borderopacity="1"
     bordercolor="#666666"
     pagecolor="#ffffff" />
  <path
     id="path900"
     d="M0 0h24v24H0z"
     fill="none" />
  <path
     id="path902"
     d="M20 16h2v6h-6v-2H8v2H2v-6h2V8H2V2h6v2h8V2h6v6h-2v8zm-2 0V8h-2V6H8v2H6v8h2v2h8v-2h2zM4 4v2h2V4H4zm0 14v2h2v-2H4zM18 4v2h2V4h-2zm0 14v2h2v-2h-2z" />
  <path
     fill="none"
     d="M 0,-2.7e-7 H 24 V 24 H 0 Z"
     id="path833" />
  <path
     id="path835"
     d="M 12,7.9999997 8,12 h 3 v 4 h 2 v -4 h 3 z" />
</svg>
