<?xml version="1.0" encoding="UTF-8" standalone="no"?>
<svg xmlns="http://www.w3.org/2000/svg" version="1.1" id="svg847" viewBox="0 0 505 109" width="200">
    <defs id="defs835">
        <style id="style833">
            .cls-1 {
                fill: #ffffff;
                fill-rule: evenodd
            }
        </style>
    </defs>
    <g id="Layer_2" data-name="Layer 2" transform="translate(-13.827 -12.976)">
        <g id="Layer_1-2" data-name="Layer 1">
            <path class="cls-1" d="M159.83 53.219a62.1 64.962 0 00-12.032-4.163 1.455 1.522 0 00-1.586.678l-16.217 34.002-1.076 2.283-14.55-30.776-2.292-4.794c0-.038-.044-.069-.066-.107l-.37-.76a3.87 4.049 0 10-2.91 1.4 3.805 3.98 0 00.472 0l.43.905s0 .069.036.107l15.78 33.264 2.255 4.764a1.411 1.476 0 002.422 0l16.217-34.002 1.84-3.859c8.316 2.047 16.53 5.754 21.622 13.22a28.307 29.612 0 015.281 15.707c.466 11.834-3.783 23.227-13.27 30.076a40.813 42.694 0 01-11.727 5.746q-2.182.662-4.365 1.11a21.447 22.435 0 01-2.27.374c-3.9.289-7.893 0-11.8 0H68.426c-6.351 0-12.702.083-19.046 0-3.638-.046-8.126-1.47-11.888-3.044-10.112-4.217-17.729-12.672-19.992-23.958-2.568-12.663 1.135-25.92 11.823-33.37 4.103-2.855 8.73-4.567 13.43-5.975a1.455 1.522 0 001.025-1.37s0-.053.051-.357q.153-.975.35-1.933a49.34 51.613 0 011.563-5.883 41.73 43.653 0 019.21-16.302 31.487 32.937 0 0125.842-10.144 24.248 25.365 0 0110.84 4.102c3.848 2.694 6.475 6.263 8.766 10.304a3.87 4.049 0 102.685-1.02c-2.248-4.063-4.75-7.648-8.381-10.585a26.743 27.975 0 00-9.909-5.03 32.323 33.813 0 00-17.096.768C56.379 18.234 48.238 27.9 43.945 39.155A45.564 47.663 0 0041.13 49.49c-8.796 2.74-17.002 7.085-22.175 15.358a31.072 32.504 0 00-5.092 16.24c-.488 12.511 4.038 24.467 13.823 31.963a42.647 44.612 0 0020.457 8.25c4.038.418 8.25.06 12.302.06h66.306c5.412 0 10.912.313 16.332 0 5.697-.327 11.691-2.625 16.653-5.425 11.044-6.248 17.46-17.504 18.115-30.586.684-13.486-5.973-26.476-18.02-32.13zm-54.206-6.324a3.114 3.257 0 113.12 3.265 3.121 3.265 0 01-3.12-3.265z" id="path841" stroke-width=".744" fill="#fff" fill-opacity="1" />
            <g transform="matrix(1.62362 0 0 1.62362 -124.508 -52.43)" id="text843" aria-label="Cloud V" font-size="medium" font-family="Montserrat" fill="#fff" fill-opacity="1" color="#000" font-style="normal" font-variant="normal" font-weight="400" font-stretch="normal" letter-spacing="normal" word-spacing="normal" writing-mode="lr-tb" direction="ltr" dominant-baseline="auto" text-anchor="start" clip-rule="nonzero" visibility="visible" color-interpolation="sRGB" color-interpolation-filters="linearRGB" fill-rule="nonzero" stroke="none" stroke-width="1" stroke-linecap="butt" stroke-linejoin="miter" stroke-miterlimit="4" stroke-dasharray="none" stroke-dashoffset="0" stroke-opacity="1" color-rendering="auto" image-rendering="auto" shape-rendering="auto" text-rendering="auto">
                <g id="g864" opacity="1">
                    <path id="path866" d="M220.27 91.671c-3.095 0-5.889-.69-8.382-2.072a15.525 15.525 0 01-5.858-5.723c-1.412-2.433-2.118-5.167-2.118-8.201 0-3.034.706-5.768 2.118-8.2a15.525 15.525 0 015.858-5.724c2.493-1.381 5.287-2.072 8.381-2.072 2.283 0 4.386.375 6.309 1.126 1.922.721 3.56 1.803 4.911 3.245l-1.442 1.487c-2.523-2.494-5.752-3.74-9.688-3.74-2.643 0-5.046.6-7.21 1.802a13.141 13.141 0 00-5.091 5.002c-1.232 2.102-1.848 4.46-1.848 7.074s.616 4.987 1.848 7.12c1.232 2.102 2.929 3.755 5.092 4.956 2.163 1.202 4.566 1.803 7.21 1.803 3.904 0 7.134-1.262 9.687-3.786l1.442 1.487c-1.352 1.442-3.004 2.539-4.957 3.29-1.922.75-4.01 1.126-6.263 1.126z" style="line-height:normal;-inkscape-font-specification:Montserrat;font-variant-ligatures:normal;font-variant-position:normal;font-variant-caps:normal;font-variant-numeric:normal;font-variant-alternates:normal;font-variant-east-asian:normal;font-feature-settings:normal;font-variation-settings:normal;text-indent:0;text-align:start;text-decoration-line:none;text-decoration-style:solid;text-decoration-color:#000;text-transform:none;text-orientation:mixed;white-space:normal;shape-padding:0;shape-margin:0;inline-size:0;isolation:auto;mix-blend-mode:normal;solid-color:#000;solid-opacity:1" text-decoration="none" baseline-shift="baseline" display="inline" overflow="visible" vector-effect="none" stop-color="#000" stop-opacity="1" />
                    <path id="path868" d="M220.27 59.18c-3.169 0-6.054.71-8.624 2.134h-.004a16.05 16.05 0 00-6.042 5.905v.002l-.002.002c-1.458 2.511-2.186 5.341-2.186 8.453 0 3.111.728 5.94 2.186 8.451l.002.002v.002a16.05 16.05 0 006.042 5.904h.004c2.57 1.425 5.455 2.137 8.624 2.137 2.308 0 4.46-.387 6.445-1.162 2.015-.776 3.735-1.915 5.139-3.412l.326-.348-2.125-2.191-.36.353c-2.462 2.434-5.538 3.64-9.336 3.64-2.567 0-4.88-.578-6.966-1.737-2.09-1.161-3.715-2.745-4.903-4.774v.004c-1.187-2.056-1.78-4.334-1.78-6.869s.594-4.797 1.78-6.822v-.002a12.623 12.623 0 014.903-4.817c2.087-1.16 4.399-1.738 6.966-1.738 3.83 0 6.905 1.194 9.336 3.596l.36.353 2.125-2.191-.326-.348c-1.403-1.496-3.108-2.621-5.094-3.367l-.006-.002c-1.984-.774-4.149-1.158-6.485-1.158zm0 1c2.228 0 4.266.365 6.126 1.091h.002l.004.002c1.699.637 3.127 1.595 4.358 2.81l-.756.78c-2.561-2.348-5.793-3.566-9.644-3.566-2.72 0-5.215.622-7.454 1.865a13.661 13.661 0 00-5.28 5.188c-1.277 2.18-1.915 4.635-1.915 7.326 0 2.692.638 5.16 1.914 7.369l.002.002c1.275 2.177 3.044 3.898 5.28 5.14 2.238 1.244 4.733 1.866 7.453 1.866 3.826 0 7.058-1.233 9.644-3.61l.756.78a12.67 12.67 0 01-4.406 2.855h-.002l-.002.002c-1.861.727-3.883 1.092-6.08 1.092-3.02 0-5.72-.671-8.137-2.01h-.002a15 15 0 01-5.668-5.537l-.002-.004c-1.365-2.354-2.049-4.99-2.049-7.945 0-2.957.684-5.596 2.05-7.951a15 15 0 015.669-5.535l.002-.002c2.416-1.339 5.118-2.008 8.137-2.008z" style="line-height:normal;-inkscape-font-specification:Montserrat;font-variant-ligatures:normal;font-variant-position:normal;font-variant-caps:normal;font-variant-numeric:normal;font-variant-alternates:normal;font-variant-east-asian:normal;font-feature-settings:normal;font-variation-settings:normal;text-indent:0;text-align:start;text-decoration-line:none;text-decoration-style:solid;text-decoration-color:#000;text-transform:none;text-orientation:mixed;white-space:normal;shape-padding:0;shape-margin:0;inline-size:0;isolation:auto;mix-blend-mode:normal;solid-color:#000;solid-opacity:1" text-decoration="none" baseline-shift="baseline" display="inline" overflow="visible" vector-effect="none" stop-color="#000" stop-opacity="1" />
                </g>
                <g id="g870" opacity="1">
                    <path id="path872" d="M238.51 58.012h2.252v33.434h-2.253z" style="line-height:normal;-inkscape-font-specification:Montserrat;font-variant-ligatures:normal;font-variant-position:normal;font-variant-caps:normal;font-variant-numeric:normal;font-variant-alternates:normal;font-variant-east-asian:normal;font-feature-settings:normal;font-variation-settings:normal;text-indent:0;text-align:start;text-decoration-line:none;text-decoration-style:solid;text-decoration-color:#000;text-transform:none;text-orientation:mixed;white-space:normal;shape-padding:0;shape-margin:0;inline-size:0;isolation:auto;mix-blend-mode:normal;solid-color:#000;solid-opacity:1" text-decoration="none" baseline-shift="baseline" display="inline" overflow="visible" vector-effect="none" stop-color="#000" stop-opacity="1" />
                    <path id="path874" d="M238.01 57.512v34.433h3.252V57.512zm1 1h1.252v32.433h-1.252z" style="line-height:normal;-inkscape-font-specification:Montserrat;font-variant-ligatures:normal;font-variant-position:normal;font-variant-caps:normal;font-variant-numeric:normal;font-variant-alternates:normal;font-variant-east-asian:normal;font-feature-settings:normal;font-variation-settings:normal;text-indent:0;text-align:start;text-decoration-line:none;text-decoration-style:solid;text-decoration-color:#000;text-transform:none;text-orientation:mixed;white-space:normal;shape-padding:0;shape-margin:0;inline-size:0;isolation:auto;mix-blend-mode:normal;solid-color:#000;solid-opacity:1" text-decoration="none" baseline-shift="baseline" display="inline" overflow="visible" vector-effect="none" stop-color="#000" stop-opacity="1" />
                </g>
                <g id="g876" opacity="1">
                    <path id="path878" d="M259.495 91.626c-2.223 0-4.236-.51-6.038-1.532a11.128 11.128 0 01-4.191-4.235c-1.021-1.833-1.532-3.89-1.532-6.174 0-2.283.51-4.325 1.532-6.128 1.021-1.832 2.418-3.26 4.19-4.28 1.803-1.022 3.816-1.533 6.039-1.533s4.22.511 5.993 1.533c1.802 1.02 3.214 2.448 4.235 4.28 1.022 1.803 1.532 3.845 1.532 6.128s-.51 4.341-1.532 6.174a11.035 11.035 0 01-4.235 4.235c-1.773 1.022-3.77 1.532-5.993 1.532zm0-2.027c1.802 0 3.41-.421 4.821-1.262 1.442-.841 2.568-2.013 3.38-3.515.84-1.502 1.261-3.214 1.261-5.137 0-1.922-.42-3.634-1.261-5.136-.812-1.502-1.938-2.674-3.38-3.515-1.412-.841-3.019-1.262-4.821-1.262-1.803 0-3.425.42-4.867 1.262-1.412.841-2.538 2.013-3.38 3.515-.81 1.502-1.216 3.214-1.216 5.136 0 1.923.406 3.635 1.217 5.137.84 1.502 1.967 2.674 3.38 3.515 1.441.841 3.063 1.262 4.866 1.262z" style="line-height:normal;-inkscape-font-specification:Montserrat;font-variant-ligatures:normal;font-variant-position:normal;font-variant-caps:normal;font-variant-numeric:normal;font-variant-alternates:normal;font-variant-east-asian:normal;font-feature-settings:normal;font-variation-settings:normal;text-indent:0;text-align:start;text-decoration-line:none;text-decoration-style:solid;text-decoration-color:#000;text-transform:none;text-orientation:mixed;white-space:normal;shape-padding:0;shape-margin:0;inline-size:0;isolation:auto;mix-blend-mode:normal;solid-color:#000;solid-opacity:1" text-decoration="none" baseline-shift="baseline" display="inline" overflow="visible" vector-effect="none" stop-color="#000" stop-opacity="1" />
                    <path id="path880" d="M259.494 67.244c-2.3 0-4.404.533-6.283 1.598h-.002l-.002.002c-1.848 1.065-3.315 2.565-4.377 4.47v-.003c-1.066 1.88-1.596 4.017-1.596 6.375 0 2.357.532 4.506 1.596 6.416v.004a11.654 11.654 0 004.377 4.421l.002.002h.002c1.88 1.065 3.984 1.598 6.283 1.598 2.299 0 4.39-.532 6.24-1.598l.002-.002a11.558 11.558 0 004.422-4.421v-.002l.002-.002c1.065-1.91 1.596-4.059 1.596-6.416 0-2.356-.531-4.491-1.596-6.371v-.002a11.476 11.476 0 00-4.424-4.47l-.002-.001c-1.85-1.066-3.941-1.598-6.24-1.598zm0 1c2.147 0 4.05.489 5.744 1.465l.002.002c1.726.978 3.067 2.332 4.047 4.09v.002l.002.002c.977 1.723 1.467 3.672 1.467 5.88 0 2.21-.49 4.175-1.469 5.93a10.52 10.52 0 01-4.047 4.045h-.002c-1.694.977-3.597 1.467-5.744 1.467-2.146 0-4.065-.489-5.79-1.467h.003a10.605 10.605 0 01-4.004-4.045l-.002-.002v-.002c-.977-1.754-1.467-3.719-1.467-5.925 0-2.209.49-4.158 1.467-5.881v-.002l.002-.002c.98-1.758 2.306-3.113 4-4.09l.004-.002c1.725-.977 3.643-1.465 5.787-1.465zm0 1.027c-1.88 0-3.597.444-5.117 1.33l-.002.003h-.002c-1.487.885-2.68 2.13-3.56 3.7l-.003.003-.002.004c-.853 1.58-1.277 3.382-1.277 5.375 0 1.993.424 3.794 1.277 5.375l.002.002.002.004c.88 1.57 2.074 2.813 3.56 3.699l.003.002.002.002c1.52.887 3.237 1.328 5.117 1.328s3.586-.443 5.078-1.332c1.514-.885 2.709-2.127 3.559-3.7v-.001c.885-1.581 1.326-3.384 1.326-5.38 0-1.994-.441-3.797-1.326-5.378-.85-1.573-2.044-2.819-3.559-3.703l-.004-.002c-1.491-.888-3.195-1.33-5.074-1.33zm0 1c1.725 0 3.235.399 4.567 1.192l.002.002h.002c1.365.796 2.42 1.893 3.191 3.32l.002.004.002.004c.797 1.423 1.197 3.043 1.197 4.893 0 1.85-.4 3.47-1.197 4.892l-.002.004-.002.002c-.77 1.427-1.826 2.524-3.191 3.32l-.002.002-.002.002c-1.332.794-2.842 1.19-4.567 1.19-1.724 0-3.25-.398-4.613-1.194-1.333-.795-2.39-1.892-3.192-3.32v-.002c-.768-1.423-1.158-3.045-1.158-4.896 0-1.85.389-3.471 1.155-4.893l.002-.002c.8-1.43 1.858-2.53 3.193-3.326l.004-.002c1.363-.794 2.886-1.191 4.61-1.191z" style="line-height:normal;-inkscape-font-specification:Montserrat;font-variant-ligatures:normal;font-variant-position:normal;font-variant-caps:normal;font-variant-numeric:normal;font-variant-alternates:normal;font-variant-east-asian:normal;font-feature-settings:normal;font-variation-settings:normal;text-indent:0;text-align:start;text-decoration-line:none;text-decoration-style:solid;text-decoration-color:#000;text-transform:none;text-orientation:mixed;white-space:normal;shape-padding:0;shape-margin:0;inline-size:0;isolation:auto;mix-blend-mode:normal;solid-color:#000;solid-opacity:1" text-decoration="none" baseline-shift="baseline" display="inline" overflow="visible" vector-effect="none" stop-color="#000" stop-opacity="1" />
                </g>
                <g id="g882" opacity="1">
                    <path id="path884" d="M298.793 67.925v23.521h-2.163v-5.047c-.78 1.653-1.937 2.944-3.47 3.875-1.531.902-3.334 1.352-5.406 1.352-3.065 0-5.468-.856-7.21-2.568-1.742-1.712-2.614-4.176-2.614-7.39V67.925h2.253v13.563c0 2.643.676 4.656 2.028 6.038 1.352 1.382 3.26 2.073 5.723 2.073 2.643 0 4.731-.827 6.263-2.479 1.562-1.652 2.343-3.875 2.343-6.669V67.925z" style="line-height:normal;-inkscape-font-specification:Montserrat;font-variant-ligatures:normal;font-variant-position:normal;font-variant-caps:normal;font-variant-numeric:normal;font-variant-alternates:normal;font-variant-east-asian:normal;font-feature-settings:normal;font-variation-settings:normal;text-indent:0;text-align:start;text-decoration-line:none;text-decoration-style:solid;text-decoration-color:#000;text-transform:none;text-orientation:mixed;white-space:normal;shape-padding:0;shape-margin:0;inline-size:0;isolation:auto;mix-blend-mode:normal;solid-color:#000;solid-opacity:1" text-decoration="none" baseline-shift="baseline" display="inline" overflow="visible" vector-effect="none" stop-color="#000" stop-opacity="1" />
                    <path id="path886" d="M277.43 67.424v14.244c0 3.305.91 5.924 2.763 7.746 1.847 1.815 4.404 2.713 7.56 2.713 2.146 0 4.044-.47 5.661-1.422l.004-.002.002-.002c1.112-.676 1.972-1.604 2.711-2.644v3.888h3.162V67.424h-3.252V80.45c0 2.7-.741 4.776-2.207 6.326l-.002.002-.002.002c-1.434 1.547-3.357 2.317-5.896 2.317-2.37 0-4.12-.649-5.366-1.922-1.24-1.268-1.884-3.13-1.884-5.688V67.424zm1 1h1.254v13.064c0 2.729.706 4.891 2.17 6.387 1.457 1.49 3.523 2.223 6.08 2.223 2.746 0 4.997-.88 6.627-2.635 1.658-1.755 2.48-4.125 2.48-7.012V68.424h1.252v22.521h-1.162v-4.547l-.953-.212c-.742 1.568-1.823 2.775-3.272 3.658h-.002c-1.447.85-3.15 1.283-5.15 1.283-2.971 0-5.222-.816-6.86-2.426-1.63-1.602-2.464-3.91-2.464-7.033z" style="line-height:normal;-inkscape-font-specification:Montserrat;font-variant-ligatures:normal;font-variant-position:normal;font-variant-caps:normal;font-variant-numeric:normal;font-variant-alternates:normal;font-variant-east-asian:normal;font-feature-settings:normal;font-variation-settings:normal;text-indent:0;text-align:start;text-decoration-line:none;text-decoration-style:solid;text-decoration-color:#000;text-transform:none;text-orientation:mixed;white-space:normal;shape-padding:0;shape-margin:0;inline-size:0;isolation:auto;mix-blend-mode:normal;solid-color:#000;solid-opacity:1" text-decoration="none" baseline-shift="baseline" display="inline" overflow="visible" vector-effect="none" stop-color="#000" stop-opacity="1" />
                </g>
                <g id="g888" opacity="1">
                    <path id="path890" d="M329.295 58.012v33.434h-2.208v-5.542c-.93 1.832-2.238 3.244-3.92 4.235-1.682.992-3.59 1.487-5.722 1.487-2.193 0-4.176-.51-5.948-1.532a11.128 11.128 0 01-4.19-4.235c-.992-1.803-1.488-3.86-1.488-6.174 0-2.313.496-4.37 1.487-6.173 1.021-1.832 2.418-3.244 4.19-4.235 1.773-1.022 3.756-1.533 5.949-1.533 2.102 0 3.98.496 5.632 1.487 1.682.992 3.004 2.374 3.965 4.146V58.012zM317.58 89.599c1.802 0 3.41-.421 4.821-1.262 1.442-.841 2.569-2.013 3.38-3.515.84-1.502 1.261-3.214 1.261-5.137 0-1.922-.42-3.634-1.261-5.136-.811-1.502-1.938-2.674-3.38-3.515-1.412-.841-3.019-1.262-4.821-1.262-1.803 0-3.425.42-4.867 1.262-1.412.841-2.538 2.013-3.38 3.515-.81 1.502-1.216 3.214-1.216 5.136 0 1.923.406 3.635 1.217 5.137.84 1.502 1.967 2.674 3.38 3.515 1.441.841 3.063 1.262 4.866 1.262z" style="line-height:normal;-inkscape-font-specification:Montserrat;font-variant-ligatures:normal;font-variant-position:normal;font-variant-caps:normal;font-variant-numeric:normal;font-variant-alternates:normal;font-variant-east-asian:normal;font-feature-settings:normal;font-variation-settings:normal;text-indent:0;text-align:start;text-decoration-line:none;text-decoration-style:solid;text-decoration-color:#000;text-transform:none;text-orientation:mixed;white-space:normal;shape-padding:0;shape-margin:0;inline-size:0;isolation:auto;mix-blend-mode:normal;solid-color:#000;solid-opacity:1" text-decoration="none" baseline-shift="baseline" display="inline" overflow="visible" vector-effect="none" stop-color="#000" stop-opacity="1" />
                    <path id="path892" d="M326.543 57.512v14.33c-.888-1.208-1.913-2.275-3.209-3.04l-.004-.001c-1.732-1.038-3.705-1.557-5.885-1.557-2.27 0-4.348.534-6.197 1.6-1.849 1.035-3.317 2.52-4.379 4.425l-.002.002c-1.035 1.882-1.549 4.03-1.549 6.415 0 2.384.514 4.532 1.549 6.414l.002.002.002.004a11.649 11.649 0 004.375 4.421c1.85 1.066 3.929 1.6 6.2 1.6 2.21 0 4.214-.518 5.976-1.557 1.29-.76 2.297-1.84 3.166-3.07v4.445h3.207V57.512h-.5zm1 1h1.252v32.433h-1.207v-5.04l-.945-.227c-.893 1.756-2.128 3.088-3.729 4.031-1.603.944-3.413 1.418-5.469 1.418-2.115 0-4.004-.49-5.699-1.467-1.696-.977-3.022-2.316-4.002-4.043v-.002c-.947-1.723-1.426-3.689-1.426-5.93 0-2.24.477-4.206 1.424-5.93l.002-.001c.98-1.757 2.304-3.094 3.996-4.041l.004-.002.002-.002c1.695-.977 3.584-1.465 5.7-1.465 2.024 0 3.803.473 5.375 1.416l.002.002c1.605.946 2.86 2.254 3.78 3.953l.94-.238zm-9.963 10.76c-1.88 0-3.599.443-5.12 1.33l-.001.002h-.002c-1.487.885-2.679 2.13-3.559 3.7l-.002.003-.002.004c-.853 1.58-1.277 3.382-1.277 5.375 0 1.993.424 3.794 1.277 5.375l.002.002.002.004c.88 1.57 2.072 2.813 3.559 3.699l.002.002.002.002c1.52.887 3.239 1.328 5.12 1.328 1.88 0 3.583-.443 5.075-1.332a9.379 9.379 0 003.56-3.7v-.001c.886-1.581 1.327-3.384 1.327-5.38 0-1.994-.441-3.797-1.326-5.378-.85-1.573-2.046-2.819-3.56-3.703l-.005-.002c-1.491-.888-3.193-1.33-5.072-1.33zm0 1c1.725 0 3.233.398 4.565 1.19l.002.003h.002c1.365.796 2.42 1.893 3.19 3.32l.003.004.002.004c.797 1.423 1.2 3.043 1.2 4.893 0 1.85-.403 3.47-1.2 4.892l-.002.004-.002.002c-.77 1.427-1.826 2.524-3.191 3.32l-.002.002-.002.002c-1.332.794-2.84 1.19-4.565 1.19-1.725 0-3.252-.398-4.615-1.194-1.333-.795-2.39-1.892-3.192-3.32v-.002c-.768-1.423-1.156-3.045-1.156-4.896 0-1.85.387-3.471 1.153-4.893l.002-.002c.8-1.43 1.858-2.53 3.193-3.326l.004-.002c1.363-.794 2.888-1.191 4.611-1.191z" style="line-height:normal;-inkscape-font-specification:Montserrat;font-variant-ligatures:normal;font-variant-position:normal;font-variant-caps:normal;font-variant-numeric:normal;font-variant-alternates:normal;font-variant-east-asian:normal;font-feature-settings:normal;font-variation-settings:normal;text-indent:0;text-align:start;text-decoration-line:none;text-decoration-style:solid;text-decoration-color:#000;text-transform:none;text-orientation:mixed;white-space:normal;shape-padding:0;shape-margin:0;inline-size:0;isolation:auto;mix-blend-mode:normal;solid-color:#000;solid-opacity:1" text-decoration="none" baseline-shift="baseline" display="inline" overflow="visible" vector-effect="none" stop-color="#000" stop-opacity="1" />
                </g>
                <g id="g858" opacity="1">
                    <path id="path860" d="M376.365 59.904l-14.059 31.542h-2.298l-14.059-31.542h2.524l12.752 28.568 12.752-28.568z" style="line-height:normal;-inkscape-font-specification:Montserrat;font-variant-ligatures:normal;font-variant-position:normal;font-variant-caps:normal;font-variant-numeric:normal;font-variant-alternates:normal;font-variant-east-asian:normal;font-feature-settings:normal;font-variation-settings:normal;text-indent:0;text-align:start;text-decoration-line:none;text-decoration-style:solid;text-decoration-color:#000;text-transform:none;text-orientation:mixed;white-space:normal;shape-padding:0;shape-margin:0;inline-size:0;isolation:auto;mix-blend-mode:normal;solid-color:#000;solid-opacity:1" text-decoration="none" baseline-shift="baseline" display="inline" overflow="visible" vector-effect="none" stop-color="#000" stop-opacity="1" />
                    <path id="path862" d="M345.18 59.404l14.504 32.541h2.947l14.504-32.54h-3.483l-12.427 27.84-12.428-27.84zm1.539 1h1.43L361.224 89.7 374.3 60.404h1.295l-13.614 30.541h-1.65z" style="line-height:normal;-inkscape-font-specification:Montserrat;font-variant-ligatures:normal;font-variant-position:normal;font-variant-caps:normal;font-variant-numeric:normal;font-variant-alternates:normal;font-variant-east-asian:normal;font-feature-settings:normal;font-variation-settings:normal;text-indent:0;text-align:start;text-decoration-line:none;text-decoration-style:solid;text-decoration-color:#000;text-transform:none;text-orientation:mixed;white-space:normal;shape-padding:0;shape-margin:0;inline-size:0;isolation:auto;mix-blend-mode:normal;solid-color:#000;solid-opacity:1" text-decoration="none" baseline-shift="baseline" display="inline" overflow="visible" vector-effect="none" stop-color="#000" stop-opacity="1" />
                </g>
            </g>
        </g>
    </g>
</svg>