<?xml version="1.0" encoding="UTF-8"?>
<svg version="1.1" viewBox="0 0 504.94 108.53" xmlns="http://www.w3.org/2000/svg" xmlns:cc="http://creativecommons.org/ns#" xmlns:dc="http://purl.org/dc/elements/1.1/" xmlns:rdf="http://www.w3.org/1999/02/22-rdf-syntax-ns#">
   <defs>
      <style>.cls-1{fill:#3dd6ff;fill-rule:evenodd;}.cls-2{font-size:45.06px;fill:#174856;font-family:FuturaBT-Medium, FuturaBT Medium;}</style>
   </defs>
   <g transform="translate(-13.827 -12.976)" data-name="Layer 2">
      <g data-name="Layer 1">
         <path class="cls-1" d="m41.13 49.49" />
         <path class="cls-1" d="m159.83 53.219a62.1 64.962 0 0 0-12.033-4.1628 1.455 1.5221 0 0 0-1.586 0.67732l-16.216 34.003-1.0767 2.2831-14.55-30.776-2.2917-4.7945c0-0.03805-0.0436-0.06849-0.0655-0.10654l-0.37103-0.76103a3.8704 4.0487 0 1 0-2.91 1.4003 3.8049 3.9802 0 0 0 0.47288 0l0.42923 0.90563s0 0.06849 0.0364 0.10654l15.78 33.265 2.2553 4.764a1.4114 1.4764 0 0 0 2.4226 0l16.216-34.003 1.8406-3.8584c8.3154 2.0472 16.529 5.7534 21.622 13.219a28.307 29.612 0 0 1 5.2817 15.708c0.46561 11.834-3.783 23.227-13.27 30.076a40.813 42.694 0 0 1-11.727 5.7458q-2.1825 0.6621-4.3651 1.1111a21.447 22.435 0 0 1-2.2698 0.3729c-3.8994 0.28919-7.8935 0-11.8 0h-63.228c-6.3512 0-12.702 0.0837-19.046 0-3.6376-0.0457-8.1263-1.4688-11.888-3.0441-10.112-4.2161-17.729-12.671-19.992-23.957-2.5681-12.664 1.1349-25.921 11.822-33.371 4.1032-2.8539 8.7301-4.5662 13.43-5.9741a1.455 1.5221 0 0 0 1.0258-1.3699s0-0.05327 0.05092-0.35768q0.15278-0.97412 0.3492-1.933a49.34 51.613 0 0 1 1.5642-5.8828 41.73 43.653 0 0 1 9.2103-16.301 31.487 32.937 0 0 1 25.841-10.145 24.248 25.365 0 0 1 10.84 4.102c3.8485 2.694 6.4748 6.2633 8.7665 10.304a3.8704 4.0487 0 1 0 2.6845-1.0198c-2.248-4.0639-4.7506-7.6484-8.3809-10.586a26.743 27.975 0 0 0-9.9087-5.0304 32.323 33.813 0 0 0-17.096 0.76864c-11.32 3.6377-19.461 13.303-23.753 24.558a45.564 47.663 0 0 0-2.8155 10.335c-8.7956 2.7397-17.002 7.0852-22.175 15.358a31.072 32.504 0 0 0-5.0926 16.24c-0.48743 12.511 4.0377 24.467 13.823 31.963a42.647 44.612 0 0 0 20.458 8.2496c4.0377 0.41857 8.25 0.0609 12.302 0.0609h66.305c5.4127 0 10.913 0.31202 16.333 0 5.6964-0.32724 11.691-2.6256 16.653-5.4261 11.044-6.2481 17.46-17.504 18.115-30.586 0.68386-13.485-5.9729-26.476-18.02-32.131zm-54.207-6.3242a3.1137 3.2572 0 1 1 3.121 3.2648 3.121 3.2648 0 0 1-3.121-3.2648z" stroke-width=".74408" />
         <g class="cls-2" transform="matrix(1.8677 0 0 1.8677 -184.15 -74.466)" fill="#174856" shape-rendering="auto" aria-label="Cloud V">
            <g transform="matrix(.86933 0 0 .86933 31.934 11.798)">
               <path d="m220.27 91.671c-3.0941 0-5.8878-0.69092-8.3812-2.0728-2.4633-1.3818-4.4159-3.2894-5.8578-5.7226-1.4119-2.4332-2.1178-5.1669-2.1178-8.2009s0.70594-5.7677 2.1178-8.2009c1.4419-2.4332 3.3945-4.3408 5.8578-5.7226 2.4933-1.3818 5.287-2.0728 8.3812-2.0728 2.283 0 4.3858 0.3755 6.3084 1.1265 1.9226 0.72096 3.5597 1.8024 4.9115 3.2443l-1.4419 1.487c-2.5234-2.4933-5.7527-3.74-9.6879-3.74-2.6435 0-5.0467 0.6008-7.2096 1.8024s-3.8601 2.8688-5.0918 5.0017c-1.2316 2.1028-1.8475 4.4609-1.8475 7.0744s0.61582 4.9866 1.8475 7.1195c1.2316 2.1028 2.9289 3.755 5.0918 4.9566s4.5661 1.8024 7.2096 1.8024c3.9052 0 7.1345-1.2617 9.6879-3.785l1.4419 1.487c-1.3518 1.4419-3.004 2.5384-4.9566 3.2894-1.9226 0.751-4.0103 1.1265-6.2633 1.1265z" color="#000000" color-rendering="auto" dominant-baseline="auto" fill="#174856" image-rendering="auto" solid-color="#000000" stop-color="#000000" style="font-feature-settings:normal;font-variant-alternates:normal;font-variant-caps:normal;font-variant-east-asian:normal;font-variant-ligatures:normal;font-variant-numeric:normal;font-variant-position:normal;font-variation-settings:normal;inline-size:0;isolation:auto;mix-blend-mode:normal;shape-margin:0;shape-padding:0;text-decoration-color:#000000;text-decoration-line:none;text-decoration-style:solid;text-indent:0;text-orientation:mixed;text-transform:none;white-space:normal" />
               <path d="m220.27 59.18c-3.1686-1e-6 -6.053 0.71042-8.623 2.1348h-4e-3c-2.5362 1.4227-4.5586 3.3993-6.043 5.9043v2e-3l-2e-3 2e-3c-1.4572 2.5113-2.1856 5.3415-2.1856 8.4531s0.72839 5.9399 2.1856 8.4512l2e-3 2e-3v2e-3c1.4844 2.505 3.5068 4.4816 6.043 5.9043h4e-3c2.57 1.4243 5.4545 2.1367 8.623 2.1367 2.3086 0 4.4611-0.38702 6.4453-1.1621 2.0155-0.77559 3.7349-1.9148 5.1387-3.4121l0.32617-0.34766-2.125-2.1914-0.35938 0.35352c-2.4628 2.4338-5.5384 3.6406-9.3359 3.6406-2.5678 0-4.8795-0.57868-6.9668-1.7383-2.0899-1.161-3.7142-2.7449-4.9024-4.7734v0.0039c-1.1874-2.0563-1.7793-4.3342-1.7793-6.8691s0.59331-4.7974 1.7793-6.8223v-2e-3c1.1886-2.0583 2.814-3.6562 4.9024-4.8164 2.0873-1.1596 4.399-1.7383 6.9668-1.7383 3.8296 0 6.905 1.1937 9.3359 3.5957l0.35938 0.35352 2.125-2.1914-0.32617-0.34766c-1.4029-1.4964-3.1072-2.6213-5.0938-3.3672l-6e-3 -2e-3c-1.9835-0.77392-4.1487-1.1582-6.4844-1.1582zm0 1c2.2282 0 4.2669 0.3652 6.127 1.0918h2e-3l4e-3 2e-3c1.6985 0.63693 3.1267 1.5946 4.3574 2.8086l-0.75586 0.78125c-2.5615-2.3486-5.7932-3.5664-9.6445-3.5664-2.7193 0-5.2146 0.62164-7.4531 1.8652-2.2374 1.243-4.0066 2.9801-5.2812 5.1875-1.2764 2.1802-1.9141 4.6351-1.9141 7.3262 0 2.692 0.63819 5.1597 1.9141 7.3691l2e-3 2e-3c1.2752 2.1771 3.0434 3.8985 5.2793 5.1406 2.2385 1.2436 4.7338 1.8652 7.4531 1.8652 3.8263 0 7.0582-1.2329 9.6445-3.6094l0.75586 0.7793c-1.2337 1.2175-2.6769 2.1903-4.4062 2.8555h-2e-3l-2e-3 2e-3c-1.8609 0.72692-3.8826 1.0918-6.0801 1.0918-3.019 0-5.7205-0.67102-8.1367-2.0098h-2e-3c-2.3884-1.3402-4.269-3.1779-5.668-5.5371l-2e-3 -0.0039c-1.3651-2.3542-2.0488-4.9904-2.0488-7.9453 0-2.9565 0.68418-5.596 2.0508-7.9512 1.3987-2.3589 3.28-4.1951 5.668-5.5352l2e-3 -2e-3c2.4161-1.3385 5.118-2.0078 8.1367-2.0078z" color="#000000" color-rendering="auto" dominant-baseline="auto" image-rendering="auto" solid-color="#000000" stop-color="#000000" style="font-feature-settings:normal;font-variant-alternates:normal;font-variant-caps:normal;font-variant-east-asian:normal;font-variant-ligatures:normal;font-variant-numeric:normal;font-variant-position:normal;font-variation-settings:normal;inline-size:0;isolation:auto;mix-blend-mode:normal;shape-margin:0;shape-padding:0;text-decoration-color:#000000;text-decoration-line:none;text-decoration-style:solid;text-indent:0;text-orientation:mixed;text-transform:none;white-space:normal" />
            </g>
            <g transform="matrix(.86933 0 0 .86933 31.934 11.798)">
               <path d="m238.51 58.012h2.253v33.435h-2.253z" color="#000000" color-rendering="auto" dominant-baseline="auto" fill="#174856" image-rendering="auto" solid-color="#000000" stop-color="#000000" style="font-feature-settings:normal;font-variant-alternates:normal;font-variant-caps:normal;font-variant-east-asian:normal;font-variant-ligatures:normal;font-variant-numeric:normal;font-variant-position:normal;font-variation-settings:normal;inline-size:0;isolation:auto;mix-blend-mode:normal;shape-margin:0;shape-padding:0;text-decoration-color:#000000;text-decoration-line:none;text-decoration-style:solid;text-indent:0;text-orientation:mixed;text-transform:none;white-space:normal" />
               <path d="m238.01 57.512v34.434h3.252v-34.434zm1 1h1.252v32.434h-1.252z" color="#000000" color-rendering="auto" dominant-baseline="auto" image-rendering="auto" solid-color="#000000" stop-color="#000000" style="font-feature-settings:normal;font-variant-alternates:normal;font-variant-caps:normal;font-variant-east-asian:normal;font-variant-ligatures:normal;font-variant-numeric:normal;font-variant-position:normal;font-variation-settings:normal;inline-size:0;isolation:auto;mix-blend-mode:normal;shape-margin:0;shape-padding:0;text-decoration-color:#000000;text-decoration-line:none;text-decoration-style:solid;text-indent:0;text-orientation:mixed;text-transform:none;white-space:normal" />
            </g>
            <g transform="matrix(.86933 0 0 .86933 31.934 11.798)">
               <path d="m259.49 91.626c-2.223 0-4.2356-0.51068-6.038-1.532-1.7724-1.0214-3.1692-2.4332-4.1906-4.2356-1.0214-1.8324-1.532-3.8902-1.532-6.1732s0.51068-4.3258 1.532-6.1282c1.0214-1.8324 2.4182-3.2593 4.1906-4.2807 1.8024-1.0214 3.8151-1.532 6.038-1.532s4.2206 0.51068 5.993 1.532c1.8024 1.0214 3.2143 2.4483 4.2356 4.2807 1.0214 1.8024 1.532 3.8451 1.532 6.1282s-0.51068 4.3408-1.532 6.1732c-1.0214 1.8024-2.4332 3.2143-4.2356 4.2356-1.7724 1.0214-3.77 1.532-5.993 1.532zm0-2.0277c1.8024 0 3.4095-0.42056 4.8214-1.2617 1.4419-0.84112 2.5684-2.0127 3.3795-3.5147 0.84112-1.502 1.2617-3.2143 1.2617-5.1368s-0.42056-3.6348-1.2617-5.1368c-0.81108-1.502-1.9376-2.6736-3.3795-3.5147-1.4119-0.84112-3.019-1.2617-4.8214-1.2617s-3.4246 0.42056-4.8665 1.2617c-1.4119 0.84112-2.5384 2.0127-3.3795 3.5147-0.81108 1.502-1.2166 3.2143-1.2166 5.1368s0.40554 3.6348 1.2166 5.1368c0.84112 1.502 1.9676 2.6736 3.3795 3.5147 1.4419 0.84112 3.0641 1.2617 4.8665 1.2617z" color="#000000" color-rendering="auto" dominant-baseline="auto" fill="#174856" image-rendering="auto" solid-color="#000000" stop-color="#000000" style="font-feature-settings:normal;font-variant-alternates:normal;font-variant-caps:normal;font-variant-east-asian:normal;font-variant-ligatures:normal;font-variant-numeric:normal;font-variant-position:normal;font-variation-settings:normal;inline-size:0;isolation:auto;mix-blend-mode:normal;shape-margin:0;shape-padding:0;text-decoration-color:#000000;text-decoration-line:none;text-decoration-style:solid;text-indent:0;text-orientation:mixed;text-transform:none;white-space:normal" />
               <path d="m259.49 67.244c-2.2995 0-4.4041 0.53283-6.2832 1.5977h-2e-3l-2e-3 2e-3c-1.8484 1.0652-3.315 2.5653-4.377 4.4707v-0.0039c-1.066 1.8812-1.5957 4.0174-1.5957 6.375 0 2.3576 0.53135 4.5064 1.5957 6.416v4e-3c1.0626 1.8751 2.5304 3.3577 4.377 4.4219l2e-3 2e-3h2e-3c1.8791 1.0648 3.9837 1.5977 6.2832 1.5977 2.2986 0 4.3901-0.532 6.2402-1.5977l2e-3 -2e-3c1.8758-1.0635 3.3588-2.5458 4.4219-4.4219v-2e-3l2e-3 -2e-3c1.0644-1.9096 1.5957-4.0584 1.5957-6.416 0-2.356-0.53113-4.4908-1.5957-6.3711v-2e-3c-1.0625-1.9057-2.5467-3.4045-4.4238-4.4688l-2e-3 -2e-3c-1.8502-1.0657-3.9416-1.5977-6.2402-1.5977zm0 1c2.1464 0 4.0501 0.48864 5.7441 1.4648l2e-3 2e-3c1.7261 0.9781 3.0672 2.3321 4.0469 4.0898v2e-3l2e-3 2e-3c0.97672 1.7236 1.4668 3.6724 1.4668 5.8809 0 2.2085-0.49038 4.1744-1.4688 5.9297-0.97894 1.726-2.3203 3.0665-4.0469 4.0449h-2e-3c-1.694 0.97621-3.5978 1.4668-5.7441 1.4668s-4.0653-0.4889-5.791-1.4668h4e-3c-1.6968-0.97785-3.024-2.3171-4.0039-4.0449l-2e-3 -2e-3c-2.6e-4 -4.68e-4 2.7e-4 -0.0015 0-2e-3 -0.97695-1.7543-1.4668-3.7189-1.4668-5.9258 0-2.2085 0.49008-4.1572 1.4668-5.8809v-2e-3l2e-3 -2e-3c0.97999-1.7582 2.3055-3.1125 4-4.0898l4e-3 -2e-3c1.7247-0.97645 3.6423-1.4648 5.7871-1.4648zm0 1.0273c-1.8802 0-3.5969 0.44327-5.1172 1.3301l-2e-3 2e-3h-2e-3c-1.4868 0.88575-2.6806 2.1298-3.5606 3.7012l-2e-3 2e-3 -2e-3 0.0039c-0.85346 1.5805-1.2773 3.3821-1.2773 5.375 0 1.9929 0.42388 3.7945 1.2773 5.375l2e-3 2e-3 2e-3 0.0039c0.87995 1.5713 2.0738 2.8135 3.5606 3.6992l4e-3 4e-3c1.5202 0.88681 3.237 1.3281 5.1172 1.3281s3.5859-0.44303 5.0781-1.332c1.5142-0.88446 2.7083-2.1272 3.5586-3.6992v-2e-3c0.88496-1.581 1.3262-3.3841 1.3262-5.3789s-0.44121-3.7979-1.3262-5.3789c-0.85053-1.573-2.0434-2.8184-3.5586-3.7031l-4e-3 -2e-3c-1.4914-0.8875-3.1956-1.3301-5.0742-1.3301zm0 1c1.7246 0 3.2349 0.39817 4.5664 1.1914l2e-3 2e-3h2e-3c1.3653 0.79641 2.4206 1.893 3.1914 3.3203l4e-3 0.0078c0.79668 1.4226 1.1973 3.0429 1.1973 4.8926s-0.40058 3.4699-1.1973 4.8926l-2e-3 0.0039-2e-3 2e-3c-0.77076 1.4273-1.8261 2.5239-3.1914 3.3203l-4e-3 4e-3c-1.3315 0.79324-2.8418 1.1895-4.5664 1.1895s-3.2497-0.39793-4.6133-1.1934c-1.3327-0.79508-2.3905-1.8925-3.1914-3.3203v-2e-3c-0.76813-1.4231-1.1582-3.0449-1.1582-4.8965 0-1.849 0.38831-3.4709 1.1543-4.8926l2e-3 -2e-3c0.80137-1.4301 1.8589-2.5303 3.1934-3.3262l4e-3 -2e-3c1.3626-0.79396 2.8864-1.1914 4.6094-1.1914z" color="#000000" color-rendering="auto" dominant-baseline="auto" image-rendering="auto" solid-color="#000000" stop-color="#000000" style="font-feature-settings:normal;font-variant-alternates:normal;font-variant-caps:normal;font-variant-east-asian:normal;font-variant-ligatures:normal;font-variant-numeric:normal;font-variant-position:normal;font-variation-settings:normal;inline-size:0;isolation:auto;mix-blend-mode:normal;shape-margin:0;shape-padding:0;text-decoration-color:#000000;text-decoration-line:none;text-decoration-style:solid;text-indent:0;text-orientation:mixed;text-transform:none;white-space:normal" />
            </g>
            <g transform="matrix(.86933 0 0 .86933 31.934 11.798)">
               <path d="m298.79 67.925v23.521h-2.1629v-5.0467c-0.78104 1.6522-1.9376 2.9439-3.4696 3.8752-1.532 0.9012-3.3344 1.3518-5.4072 1.3518-3.0641 0-5.4673-0.85614-7.2096-2.5684s-2.6135-4.1756-2.6135-7.3898v-13.743h2.253v13.563c0 2.6435 0.6759 4.6562 2.0277 6.038s3.2593 2.0728 5.7226 2.0728c2.6435 0 4.7313-0.8261 6.2633-2.4783 1.5621-1.6522 2.3431-3.8752 2.3431-6.6689v-12.527z" color="#000000" color-rendering="auto" dominant-baseline="auto" fill="#174856" image-rendering="auto" solid-color="#000000" stop-color="#000000" style="font-feature-settings:normal;font-variant-alternates:normal;font-variant-caps:normal;font-variant-east-asian:normal;font-variant-ligatures:normal;font-variant-numeric:normal;font-variant-position:normal;font-variation-settings:normal;inline-size:0;isolation:auto;mix-blend-mode:normal;shape-margin:0;shape-padding:0;text-decoration-color:#000000;text-decoration-line:none;text-decoration-style:solid;text-indent:0;text-orientation:mixed;text-transform:none;white-space:normal" />
               <path d="m277.43 67.424v14.244c0 3.3046 0.90979 5.9242 2.7637 7.7461 1.8468 1.815 4.4033 2.7129 7.5606 2.7129 2.1452 0 4.0432-0.47071 5.6602-1.4219l4e-3 -2e-3 2e-3 -2e-3c1.1119-0.67586 1.9717-1.6046 2.7109-2.6445v3.8887h3.1621v-24.521h-3.252v13.027c0 2.7005-0.74161 4.7762-2.207 6.3262l-4e-3 4e-3c-1.4346 1.5471-3.3571 2.3164-5.8965 2.3164-2.3698 0-4.1196-0.64856-5.3652-1.9219-1.2404-1.2679-1.8848-3.1292-1.8848-5.6875v-14.065zm1 1h1.2539v13.064c0 2.7287 0.70667 4.8909 2.1699 6.3867 1.458 1.4904 3.5233 2.2227 6.0801 2.2227 2.746 0 4.9977-0.87959 6.627-2.6348 1.6587-1.7544 2.4805-4.1248 2.4805-7.0117v-12.027h1.252v22.521h-1.1621v-4.5469l-0.95313-0.21289c-0.74151 1.5686-1.8225 2.7759-3.2715 3.6582-5.1e-4 3.01e-4 -1e-3 -3.01e-4 -2e-3 0-1.4468 0.85064-3.1508 1.2832-5.1504 1.2832-2.971 0-5.2216-0.81621-6.8594-2.4258-1.6308-1.6026-2.4648-3.9093-2.4648-7.0332z" color="#000000" color-rendering="auto" dominant-baseline="auto" image-rendering="auto" solid-color="#000000" stop-color="#000000" style="font-feature-settings:normal;font-variant-alternates:normal;font-variant-caps:normal;font-variant-east-asian:normal;font-variant-ligatures:normal;font-variant-numeric:normal;font-variant-position:normal;font-variation-settings:normal;inline-size:0;isolation:auto;mix-blend-mode:normal;shape-margin:0;shape-padding:0;text-decoration-color:#000000;text-decoration-line:none;text-decoration-style:solid;text-indent:0;text-orientation:mixed;text-transform:none;white-space:normal" />
            </g>
            <g transform="matrix(.86933 0 0 .86933 31.934 11.798)">
               <path d="m329.3 58.012v33.435h-2.2079v-5.5424c-0.93124 1.8324-2.238 3.2443-3.9202 4.2356s-3.5898 1.487-5.7226 1.487c-2.1929 0-4.1756-0.51068-5.9479-1.532s-3.1692-2.4332-4.1906-4.2356c-0.99132-1.8024-1.487-3.8601-1.487-6.1732s0.49566-4.3708 1.487-6.1732c1.0214-1.8324 2.4182-3.2443 4.1906-4.2356 1.7724-1.0214 3.755-1.532 5.9479-1.532 2.1028 0 3.9803 0.49566 5.6325 1.487 1.6822 0.99132 3.004 2.3732 3.9653 4.1455v-15.365zm-11.716 31.587c1.8024 0 3.4095-0.42056 4.8214-1.2617 1.4419-0.84112 2.5684-2.0127 3.3795-3.5147 0.84112-1.502 1.2617-3.2143 1.2617-5.1368s-0.42056-3.6348-1.2617-5.1368c-0.81108-1.502-1.9376-2.6736-3.3795-3.5147-1.4119-0.84112-3.019-1.2617-4.8214-1.2617s-3.4246 0.42056-4.8665 1.2617c-1.4119 0.84112-2.5384 2.0127-3.3795 3.5147-0.81108 1.502-1.2166 3.2143-1.2166 5.1368s0.40554 3.6348 1.2166 5.1368c0.84112 1.502 1.9676 2.6736 3.3795 3.5147 1.4419 0.84112 3.0641 1.2617 4.8665 1.2617z" color="#000000" color-rendering="auto" dominant-baseline="auto" fill="#174856" image-rendering="auto" solid-color="#000000" stop-color="#000000" style="font-feature-settings:normal;font-variant-alternates:normal;font-variant-caps:normal;font-variant-east-asian:normal;font-variant-ligatures:normal;font-variant-numeric:normal;font-variant-position:normal;font-variation-settings:normal;inline-size:0;isolation:auto;mix-blend-mode:normal;shape-margin:0;shape-padding:0;text-decoration-color:#000000;text-decoration-line:none;text-decoration-style:solid;text-indent:0;text-orientation:mixed;text-transform:none;white-space:normal" />
               <path d="m326.54 57.512v14.33c-0.88749-1.2081-1.9132-2.2748-3.209-3.0391l-4e-3 -2e-3c-1.7316-1.038-3.705-1.5566-5.8848-1.5566-2.2699 0-4.348 0.53431-6.1973 1.5996-1.8489 1.0353-3.3173 2.5211-4.3789 4.4258l-2e-3 2e-3c-1.0348 1.8815-1.5488 4.0296-1.5488 6.4141 0 2.3845 0.51398 4.5325 1.5488 6.4141l2e-3 2e-3 2e-3 0.0039c1.0626 1.8751 2.5284 3.3577 4.375 4.4219 1.8497 1.0659 3.9287 1.5996 6.1992 1.5996 2.2103 0 4.2147-0.5184 5.9766-1.5566 1.2892-0.75973 2.2975-1.8408 3.166-3.0703v4.4453h3.207v-34.434h-0.5zm1 1h1.252v32.434h-1.207v-5.041l-0.94531-0.22656c-0.89265 1.7565-2.1276 3.0879-3.7285 4.0312-1.6026 0.9444-3.4134 1.418-5.4688 1.418-2.1153 0-4.0042-0.48998-5.6992-1.4668-1.696-0.97738-3.0221-2.3163-4.002-4.043v-2e-3c-0.94721-1.7229-1.4258-3.6887-1.4258-5.9297 0-2.2407 0.47684-4.207 1.4238-5.9297l2e-3 -2e-3c0.98001-1.7573 2.3034-3.0942 3.9961-4.041l4e-3 -2e-3 2e-3 -2e-3c1.6951-0.97682 3.5839-1.4648 5.6992-1.4648 2.0242 0 3.803 0.47284 5.375 1.416l2e-3 2e-3c1.6058 0.9463 2.8596 2.2539 3.7812 3.9531l0.93945-0.23828zm-9.9629 10.76c-1.8802 0-3.5989 0.44327-5.1191 1.3301l-2e-3 2e-3h-2e-3c-1.4868 0.88575-2.6786 2.1298-3.5586 3.7012l-2e-3 2e-3 -2e-3 0.0039c-0.85346 1.5805-1.2773 3.3821-1.2773 5.375 0 1.9929 0.42388 3.7945 1.2773 5.375l2e-3 2e-3 2e-3 0.0039c0.87995 1.5713 2.0718 2.8135 3.5586 3.6992l4e-3 4e-3c1.5202 0.88681 3.239 1.3281 5.1191 1.3281s3.5839-0.44303 5.0762-1.332c1.5142-0.88446 2.7103-2.1272 3.5606-3.6992v-2e-3c0.88496-1.581 1.3262-3.3841 1.3262-5.3789 0-1.9948-0.44121-3.7979-1.3262-5.3789-0.85053-1.573-2.0454-2.8184-3.5606-3.7031l-4e-3 -2e-3c-1.4914-0.8875-3.1937-1.3301-5.0723-1.3301zm0 1c1.7246 0 3.2329 0.39817 4.5644 1.1914l2e-3 2e-3h2e-3c1.3653 0.79641 2.4206 1.893 3.1914 3.3203l4e-3 0.0078c0.79668 1.4226 1.1992 3.0429 1.1992 4.8926s-0.40254 3.4699-1.1992 4.8926l-2e-3 0.0039-2e-3 2e-3c-0.77076 1.4273-1.8261 2.5239-3.1914 3.3203l-4e-3 4e-3c-1.3315 0.79324-2.8398 1.1895-4.5644 1.1895s-3.2516-0.39793-4.6152-1.1934c-1.3327-0.79508-2.3905-1.8925-3.1914-3.3203v-2e-3c-0.76813-1.4231-1.1562-3.0449-1.1562-4.8965 0-1.849 0.38635-3.4709 1.1523-4.8926l2e-3 -2e-3c0.80138-1.4301 1.8589-2.5303 3.1934-3.3262l4e-3 -2e-3c1.3626-0.79396 2.8883-1.1914 4.6113-1.1914z" color="#000000" color-rendering="auto" dominant-baseline="auto" image-rendering="auto" solid-color="#000000" stop-color="#000000" style="font-feature-settings:normal;font-variant-alternates:normal;font-variant-caps:normal;font-variant-east-asian:normal;font-variant-ligatures:normal;font-variant-numeric:normal;font-variant-position:normal;font-variation-settings:normal;inline-size:0;isolation:auto;mix-blend-mode:normal;shape-margin:0;shape-padding:0;text-decoration-color:#000000;text-decoration-line:none;text-decoration-style:solid;text-indent:0;text-orientation:mixed;text-transform:none;white-space:normal" />
            </g>
            <g transform="matrix(.86933 0 0 .86933 31.934 11.798)">
               <path d="m376.36 59.904-14.059 31.542h-2.2981l-14.059-31.542h2.5234l12.752 28.568 12.752-28.568z" color="#000000" color-rendering="auto" dominant-baseline="auto" fill="#174856" image-rendering="auto" solid-color="#000000" stop-color="#000000" style="font-feature-settings:normal;font-variant-alternates:normal;font-variant-caps:normal;font-variant-east-asian:normal;font-variant-ligatures:normal;font-variant-numeric:normal;font-variant-position:normal;font-variation-settings:normal;inline-size:0;isolation:auto;mix-blend-mode:normal;shape-margin:0;shape-padding:0;text-decoration-color:#000000;text-decoration-line:none;text-decoration-style:solid;text-indent:0;text-orientation:mixed;text-transform:none;white-space:normal" />
               <path d="m345.18 59.404 14.504 32.541h2.9473l14.504-32.541h-3.4824l-12.428 27.84-12.428-27.84zm1.5391 1h1.4297l13.076 29.295 13.076-29.295h1.2949l-13.613 30.541h-1.6504z" color="#000000" color-rendering="auto" dominant-baseline="auto" image-rendering="auto" solid-color="#000000" stop-color="#000000" style="font-feature-settings:normal;font-variant-alternates:normal;font-variant-caps:normal;font-variant-east-asian:normal;font-variant-ligatures:normal;font-variant-numeric:normal;font-variant-position:normal;font-variation-settings:normal;inline-size:0;isolation:auto;mix-blend-mode:normal;shape-margin:0;shape-padding:0;text-decoration-color:#000000;text-decoration-line:none;text-decoration-style:solid;text-indent:0;text-orientation:mixed;text-transform:none;white-space:normal" />
            </g>
         </g>
      </g>
   </g>
</svg>
