<svg xmlns="http://www.w3.org/2000/svg" viewBox="0 0 225.48 142.64">
    <defs>
        <style>.cls-1{fill:#3dd6ff;fill-rule:evenodd;}</style>
    </defs>
    <title>Asset 2</title>
    <g id="Layer_2" data-name="Layer 2">
        <g id="Layer_1-2" data-name="Layer 1">
            <path class="cls-1" d="M41.13,49.49v0Z" />
            <path class="cls-1" d="M200.64,52.9a85.36,85.36,0,0,0-16.54-5.47,2,2,0,0,0-2.18.89L159.63,93l-1.48,3-20-40.44L135,49.26c0-.05-.06-.09-.09-.14l-.51-1a5.32,5.32,0,1,0-4,1.84,5.23,5.23,0,0,0,.65,0l.59,1.19s0,.09.05.14L153.38,95l3.1,6.26a1.94,1.94,0,0,0,3.33,0L182.1,56.58l2.53-5.07c11.43,2.69,22.72,7.56,29.72,17.37a38.91,38.91,0,0,1,7.26,20.64c.64,15.55-5.2,30.52-18.24,39.52a56.1,56.1,0,0,1-16.12,7.55q-3,.87-6,1.46a29.48,29.48,0,0,1-3.12.49c-5.36.38-10.85,0-16.22,0H75c-8.73,0-17.46.11-26.18,0-5-.06-11.17-1.93-16.34-4C18.58,129,8.11,117.89,5,103.06,1.47,86.42,6.56,69,21.25,59.21c5.64-3.75,12-6,18.46-7.85a2,2,0,0,0,1.41-1.8s0-.07.07-.47q.21-1.28.48-2.54a67.82,67.82,0,0,1,2.15-7.73A57.36,57.36,0,0,1,56.48,17.4,43.28,43.28,0,0,1,92,4.07a33.33,33.33,0,0,1,14.9,5.39C112.19,13,115.8,17.69,118.95,23a5.32,5.32,0,1,0,3.69-1.34c-3.09-5.34-6.53-10.05-11.52-13.91A36.76,36.76,0,0,0,97.5,1.14,44.43,44.43,0,0,0,74,2.15C58.44,6.93,47.25,19.63,41.35,34.42A62.63,62.63,0,0,0,37.48,48C25.39,51.6,14.11,57.31,7,68.18A42.71,42.71,0,0,0,0,89.52c-.67,16.44,5.55,32.15,19,42a58.62,58.62,0,0,0,28.12,10.84c5.55.55,11.34.08,16.91.08h91.14c7.44,0,15,.41,22.45,0,7.83-.43,16.07-3.45,22.89-7.13,15.18-8.21,24-23,24.9-40.19C226.35,77.4,217.2,60.33,200.64,52.9Zm-74.51-8.31a4.28,4.28,0,1,1,4.29,4.29A4.29,4.29,0,0,1,126.13,44.59Z" />
        </g>
    </g>
</svg>